STARTFONT 2.1
FONT -Sun-OPEN LOOK glyph-----24-240-75-75-P-206-SunOLglyph-1
SIZE 24 75 75
FONTBOUNDINGBOX 83 83 0 -83

STARTPROPERTIES 22
FONTNAME_REGISTRY ""
FAMILY_NAME "OPEN LOOK glyph"
FOUNDRY "Sun"
WEIGHT_NAME ""
SETWIDTH_NAME ""
SLANT ""
ADD_STYLE_NAME ""
PIXEL_SIZE 24
POINT_SIZE 240
RESOLUTION_X 75
RESOLUTION_Y 75
SPACING "P"
AVERAGE_WIDTH 206
CHARSET_REGISTRY "SunOLglyph"
CHARSET_ENCODING "1"
FULL_NAME "OLGlyph"
WEIGHT 10
X_HEIGHT 0
QUAD_WIDTH 42
DEFAULT_CHAR 0
FONT_DESCENT 83
FONT_ASCENT 0
ENDPROPERTIES

CHARS 234

STARTCHAR VerticalScrollbarEle
ENCODING 1
SWIDTH 122 0
DWIDTH 27 0
BBX 27 83 0 -83
BITMAP
7FFFFFC0
C00000E0
800000E0
800000E0
800000E0
800000E0
800000E0
800C00E0
801C00E0
803F00E0
807F80E0
80FFC0E0
81FFC0E0
83FFE0E0
87FFF8E0
8FFFFCE0
8FFFFCE0
8FFFFCE0
800000E0
800000E0
800000E0
800000E0
800000E0
800000E0
800000E0
800000E0
C00000E0
FFFFFFE0
C00000E0
800000E0
800000E0
800000E0
800000E0
800000E0
800000E0
800000E0
800000E0
800000E0
800000E0
800000E0
800000E0
800000E0
800000E0
800000E0
800000E0
800000E0
800000E0
800000E0
800000E0
800000E0
800000E0
800000E0
800000E0
FFFFFFE0
FFFFFFE0
800000E0
800000E0
800000E0
800000E0
800000E0
800000E0
800000E0
800000E0
800000E0
8FFFFCE0
8FFFFCE0
8FFFFCE0
87FFF8E0
83FFE0E0
80FFC0E0
807F80E0
807F80E0
803F00E0
801C00E0
800000E0
800000E0
800000E0
800000E0
800000E0
800000E0
FFFFFFE0
FFFFFFE0
7FFFFFC0
ENDCHAR

STARTCHAR VerticalScrollbarEle
ENCODING 2
SWIDTH 122 0
DWIDTH 28 0
BBX 27 83 0 -83
BITMAP
7FFFFFC0
FFFFFFE0
FFFFFFE0
FFFFFFE0
FFFFFFE0
FFFFFFE0
FFFFFFE0
FFFFFFE0
FFF3FFE0
FFC1FFE0
FF80FFE0
FF807FE0
FF003FE0
FE001FE0
F8000FE0
F80007E0
F00003E0
F00003E0
FFFFFFE0
FFFFFFE0
FFFFFFE0
FFFFFFE0
FFFFFFE0
FFFFFFE0
FFFFFFE0
FFFFFFE0
FFFFFFE0
FFFFFFE0
C00000E0
800000E0
800000E0
800000E0
800000E0
800000E0
800000E0
800000E0
800000E0
800000E0
800000E0
800000E0
800000E0
800000E0
800000E0
800000E0
800000E0
800000E0
800000E0
800000E0
800000E0
800000E0
800000E0
800000E0
800000E0
FFFFFFE0
FFFFFFE0
800000E0
800000E0
800000E0
800000E0
800000E0
800000E0
800000E0
800000E0
800000E0
8FFFFCE0
8FFFFCE0
8FFFFCE0
87FFF8E0
83FFE0E0
80FFC0E0
807F80E0
807F80E0
803F00E0
801C00E0
800000E0
800000E0
800000E0
800000E0
800000E0
800000E0
FFFFFFE0
FFFFFFE0
7FFFFFC0
ENDCHAR

STARTCHAR VerticalScrollbarEle
ENCODING 3
SWIDTH 122 0
DWIDTH 28 0
BBX 27 83 0 -83
BITMAP
7FFFFFC0
C00000E0
800000E0
800000E0
800000E0
800000E0
800000E0
800C00E0
801C00E0
803F00E0
807F80E0
80FFC0E0
81FFC0E0
83FFE0E0
87FFF8E0
8FFFFCE0
8FFFFCE0
8FFFFCE0
800000E0
800000E0
800000E0
800000E0
800000E0
800000E0
800000E0
800000E0
C00000E0
FFFFFFE0
FFFFFFE0
FFFFFFE0
FFFFFFE0
FFFFFFE0
FFFFFFE0
FFFFFFE0
FFFFFFE0
FFFFFFE0
FFFFFFE0
FFFFFFE0
FFFFFFE0
FFFFFFE0
FFFFFFE0
FFFFFFE0
FFFFFFE0
FFFFFFE0
FFFFFFE0
FFFFFFE0
FFFFFFE0
FFFFFFE0
FFFFFFE0
FFFFFFE0
FFFFFFE0
FFFFFFE0
FFFFFFE0
FFFFFFE0
FFFFFFE0
800000E0
800000E0
800000E0
800000E0
800000E0
800000E0
800000E0
800000E0
800000E0
8FFFFCE0
8FFFFCE0
8FFFFCE0
87FFF8E0
83FFE0E0
80FFC0E0
807F80E0
807F80E0
803F00E0
801C00E0
800000E0
800000E0
800000E0
800000E0
800000E0
800000E0
FFFFFFE0
FFFFFFE0
7FFFFFC0
ENDCHAR

STARTCHAR VerticalScrollbarEle
ENCODING 4
SWIDTH 122 0
DWIDTH 27 0
BBX 27 83 0 -83
BITMAP
7FFFFFC0
C00000E0
800000E0
800000E0
800000E0
800000E0
800000E0
800C00E0
801C00E0
803F00E0
807F80E0
80FFC0E0
81FFC0E0
83FFE0E0
87FFF8E0
8FFFFCE0
8FFFFCE0
8FFFFCE0
800000E0
800000E0
800000E0
800000E0
800000E0
800000E0
800000E0
800000E0
C00000E0
FFFFFFE0
C00000E0
800000E0
800000E0
800000E0
800000E0
800000E0
800000E0
800000E0
800000E0
800000E0
800000E0
800000E0
800000E0
800000E0
800000E0
800000E0
800000E0
800000E0
800000E0
800000E0
800000E0
800000E0
800000E0
800000E0
800000E0
FFFFFFE0
FFFFFFE0
FFFFFFE0
FFFFFFE0
FFFFFFE0
FFFFFFE0
FFFFFFE0
FFFFFFE0
FFFFFFE0
FFFFFFE0
FFFFFFE0
F00003E0
F00003E0
F80007E0
FC000FE0
FE001FE0
FF003FE0
FF807FE0
FFC0FFE0
FFE1FFE0
FFF3FFE0
FFFFFFE0
FFFFFFE0
FFFFFFE0
FFFFFFE0
FFFFFFE0
FFFFFFE0
FFFFFFE0
FFFFFFE0
7FFFFFC0
ENDCHAR

STARTCHAR VerticalScrollbarRed
ENCODING 5
SWIDTH 122 0
DWIDTH 27 0
BBX 27 56 0 -56
BITMAP
7FFFFFC0
C00000E0
800000E0
800000E0
800000E0
800000E0
800000E0
800C00E0
801C00E0
803F00E0
807F80E0
80FFC0E0
81FFC0E0
83FFE0E0
87FFF8E0
8FFFFCE0
8FFFFCE0
8FFFFCE0
800000E0
800000E0
800000E0
800000E0
800000E0
800000E0
800000E0
800000E0
C00000E0
FFFFFFE0
800000E0
800000E0
800000E0
800000E0
800000E0
800000E0
800000E0
800000E0
800000E0
8FFFFCE0
8FFFFCE0
8FFFFCE0
87FFF8E0
83FFE0E0
80FFC0E0
807F80E0
807F80E0
803F00E0
801C00E0
800000E0
800000E0
800000E0
800000E0
800000E0
800000E0
FFFFFFE0
FFFFFFE0
7FFFFFC0
ENDCHAR

STARTCHAR VerticalScrollbarRed
ENCODING 6
SWIDTH 122 0
DWIDTH 27 0
BBX 27 56 0 -56
BITMAP
7FFFFFC0
FFFFFFE0
FFFFFFE0
FFFFFFE0
FFFFFFE0
FFFFFFE0
FFFFFFE0
FFFFFFE0
FFF3FFE0
FFC1FFE0
FF80FFE0
FF807FE0
FF003FE0
FE001FE0
F8000FE0
F00007E0
F00003E0
F00003E0
FFFFFFE0
FFFFFFE0
FFFFFFE0
FFFFFFE0
FFFFFFE0
FFFFFFE0
FFFFFFE0
FFFFFFE0
FFFFFFE0
FFFFFFE0
800000E0
800000E0
800000E0
800000E0
800000E0
800000E0
800000E0
800000E0
800000E0
8FFFFCE0
8FFFFCE0
8FFFFCE0
87FFF8E0
83FFE0E0
80FFC0E0
807F80E0
807F80E0
803F00E0
801C00E0
800000E0
800000E0
800000E0
800000E0
800000E0
800000E0
FFFFFFE0
FFFFFFE0
7FFFFFC0
ENDCHAR

STARTCHAR VerticalScrollbarRed
ENCODING 7
SWIDTH 122 0
DWIDTH 27 0
BBX 27 56 0 -56
BITMAP
7FFFFFC0
C00000E0
800000E0
800000E0
800000E0
800000E0
800000E0
800C00E0
801C00E0
803F00E0
807F80E0
80FFC0E0
81FFC0E0
83FFE0E0
87FFF8E0
8FFFFCE0
8FFFFCE0
8FFFFCE0
800000E0
800000E0
800000E0
800000E0
800000E0
800000E0
800000E0
800000E0
C00000E0
FFFFFFE0
FFFFFFE0
FFFFFFE0
FFFFFFE0
FFFFFFE0
FFFFFFE0
FFFFFFE0
FFFFFFE0
FFFFFFE0
FFFFFFE0
F00003E0
F00003E0
F80007E0
FC000FE0
FE001FE0
FF003FE0
FF807FE0
FFC0FFE0
FFE1FFE0
FFF3FFE0
FFFFFFE0
FFFFFFE0
FFFFFFE0
FFFFFFE0
FFFFFFE0
FFFFFFE0
FFFFFFE0
FFFFFFE0
7FFFFFC0
ENDCHAR

STARTCHAR VerticalScrollbarAnc
ENCODING 8
SWIDTH 122 0
DWIDTH 27 0
BBX 27 12 0 -12
BITMAP
FFFFFFE0
FFFFFFE0
80000020
80000020
80000020
80000020
80000020
80000020
80000020
80000020
FFFFFFE0
FFFFFFE0
ENDCHAR

STARTCHAR VerticalScrollbarAnc
ENCODING 9
SWIDTH 122 0
DWIDTH 27 0
BBX 27 12 0 -12
BITMAP
FFFFFFE0
FFFFFFE0
FFFFFFE0
FFFFFFE0
FFFFFFE0
FFFFFFE0
FFFFFFE0
FFFFFFE0
FFFFFFE0
FFFFFFE0
FFFFFFE0
FFFFFFE0
ENDCHAR

STARTCHAR HorizontalScrollbarE
ENCODING 10
SWIDTH 122 0
DWIDTH 83 0
BBX 83 27 0 -27
BITMAP
7FFFFFFFFFFFFFFFFFFFC0
C0000038000006000000E0
80000010000006000000E0
80000010000006000000E0
8001C01000000600E000E0
8003C01000000600F000E0
8007C01000000600F800E0
800FC01000000600F800E0
801FC01000000600FC00E0
803FC01000000600FF00E0
807FC01000000600FF80E0
80FFC01000000600FFC0E0
81FFC01000000600FFC0E0
81FFC01000000600FFC0E0
807FC01000000600FF80E0
807FC01000000600FF80E0
803FC01000000600FF00E0
801FC01000000600FC00E0
8007C01000000600F800E0
8003C01000000600F000E0
8003C01000000600F000E0
8001C01000000600E000E0
80000010000006000000E0
80000010000006000000E0
FFFFFFFFFFFFFFFFFFFFE0
FFFFFFFFFFFFFFFFFFFFE0
7FFFFFFFFFFFFFFFFFFFC0
ENDCHAR

STARTCHAR HorizontalScrollbarE
ENCODING 11
SWIDTH 122 0
DWIDTH 83 0
BBX 83 27 0 -27
BITMAP
7FFFFFFFFFFFFFFFFFFFC0
FFFFFFF8000006000000E0
FFFFFFF0000006000000E0
FFFFFFF0000006000000E0
FFFF3FF000000600E000E0
FFFC3FF000000600F000E0
FFFC3FF000000600F800E0
FFF83FF000000600F800E0
FFF03FF000000600FC00E0
FFC03FF000000600FF00E0
FF803FF000000600FF80E0
FF803FF000000600FFC0E0
FF003FF000000600FFC0E0
FF003FF000000600FFC0E0
FF803FF000000600FF80E0
FFC03FF000000600FF80E0
FFE03FF000000600FF00E0
FFF03FF000000600FC00E0
FFF83FF000000600F800E0
FFFC3FF000000600F000E0
FFFE3FF000000600F000E0
FFFF3FF000000600E000E0
FFFFFFF0000006000000E0
FFFFFFF0000006000000E0
FFFFFFFFFFFFFFFFFFFFE0
FFFFFFFFFFFFFFFFFFFFE0
7FFFFFFFFFFFFFFFFFFFC0
ENDCHAR

STARTCHAR HorizontalScrollbarE
ENCODING 12
SWIDTH 122 0
DWIDTH 83 0
BBX 83 27 0 -27
BITMAP
7FFFFFFFFFFFFFFFFFFFC0
C000000FFFFFFE000000E0
8000000FFFFFFE000000E0
8000000FFFFFFE000000E0
8001C00FFFFFFE00E000E0
8003C00FFFFFFE00F000E0
8007C00FFFFFFE00F800E0
800FC00FFFFFFE00F800E0
801FC00FFFFFFE00FC00E0
803FC00FFFFFFE00FF00E0
807FC00FFFFFFE00FF80E0
80FFC00FFFFFFE00FFC0E0
81FFC00FFFFFFE00FFC0E0
81FFC00FFFFFFE00FFC0E0
807FC00FFFFFFE00FF80E0
807FC00FFFFFFE00FF80E0
803FC00FFFFFFE00FF00E0
801FC00FFFFFFE00FC00E0
8007C00FFFFFFE00F800E0
8003C00FFFFFFE00F000E0
8003C00FFFFFFE00F000E0
8001C00FFFFFFE00E000E0
8000000FFFFFFE000000E0
8000000FFFFFFE000000E0
FFFFFFFFFFFFFFFFFFFFE0
FFFFFFFFFFFFFFFFFFFFE0
7FFFFFFFFFFFFFFFFFFFC0
ENDCHAR

STARTCHAR HorizontalScrollbarE
ENCODING 13
SWIDTH 122 0
DWIDTH 83 0
BBX 83 27 0 -27
BITMAP
7FFFFFFFFFFFFFFFFFFFC0
C0000038000007FFFFFFE0
80000010000007FFFFFFE0
80000010000007FFFFFFE0
8001C010000007FF3FFFE0
8003C010000007FF1FFFE0
8007C010000007FF0FFFE0
800FC010000007FF07FFE0
801FC010000007FF03FFE0
803FC010000007FF01FFE0
807FC010000007FF00FFE0
80FFC010000007FF007FE0
81FFC010000007FF003FE0
81FFC010000007FF003FE0
807FC010000007FF007FE0
807FC010000007FF00FFE0
803FC010000007FF01FFE0
801FC010000007FF03FFE0
8007C010000007FF07FFE0
8003C010000007FF0FFFE0
8003C010000007FF1FFFE0
8001C010000007FF3FFFE0
80000010000007FFFFFFE0
80000010000007FFFFFFE0
FFFFFFFFFFFFFFFFFFFFE0
FFFFFFFFFFFFFFFFFFFFE0
7FFFFFFFFFFFFFFFFFFFC0
ENDCHAR

STARTCHAR HorizontalScrollbarR
ENCODING 14
SWIDTH 122 0
DWIDTH 56 0
BBX 56 27 0 -27
BITMAP
7FFFFFFFFFFFFE
C0000030000007
80000010000007
80000010000007
8001C010070007
8003C010078007
8007C01007C007
800FC01007C007
801FC01007E007
803FC01007F807
807FC01007FC07
80FFC01007FE07
81FFC01007FE07
81FFC01007FE07
807FC01007FC07
807FC01007FC07
803FC01007F807
801FC01007E007
8007C01007C007
8003C010078007
8003C010078007
8001C010070007
80000010000007
80000010000007
FFFFFFFFFFFFFF
FFFFFFFFFFFFFF
7FFFFFFFFFFFFE
ENDCHAR

STARTCHAR HorizontalScrollbarR
ENCODING 15
SWIDTH 122 0
DWIDTH 56 0
BBX 56 27 0 -27
BITMAP
7FFFFFFFFFFFFE
FFFFFFF0000007
FFFFFFF0000007
FFFFFFF0000007
FFFE3FF0070007
FFFC3FF0078007
FFFC3FF007C007
FFF83FF007C007
FFF03FF007E007
FFC03FF007F807
FF803FF007FC07
FF803FF007FE07
FF003FF007FE07
FF003FF007FE07
FF803FF007FC07
FFC03FF007FC07
FFE03FF007F807
FFF03FF007E007
FFF83FF007C007
FFFC3FF0078007
FFFE3FF0078007
FFFF3FF0070007
FFFFFFF0000007
FFFFFFF0000007
FFFFFFFFFFFFFF
FFFFFFFFFFFFFF
7FFFFFFFFFFFFE
ENDCHAR

STARTCHAR HorizontalScrollbarR
ENCODING 16
SWIDTH 122 0
DWIDTH 56 0
BBX 56 27 0 -27
BITMAP
7FFFFFFFFFFFFE
C000003FFFFFFF
8000001FFFFFFF
8000001FFFFFFF
8001C01FF9FFFF
8003C01FF8FFFF
8007C01FF87FFF
800FC01FF83FFF
801FC01FF81FFF
803FC01FF80FFF
807FC01FF807FF
80FFC01FF803FF
81FFC01FF801FF
81FFC01FF801FF
807FC01FF803FF
807FC01FF807FF
803FC01FF80FFF
801FC01FF81FFF
8007C01FF83FFF
8003C01FF87FFF
8003C01FF8FFFF
8001C01FF9FFFF
8000001FFFFFFF
8000001FFFFFFF
FFFFFFFFFFFFFF
FFFFFFFFFFFFFF
7FFFFFFFFFFFFE
ENDCHAR

STARTCHAR HorizontalScrollbarA
ENCODING 17
SWIDTH 122 0
DWIDTH 12 0
BBX 12 27 0 -27
BITMAP
FFF0
C030
C030
C030
C030
C030
C030
C030
C030
C030
C030
C030
C030
C030
C030
C030
C030
C030
C030
C030
C030
C030
C030
C030
C030
C030
FFF0
ENDCHAR

STARTCHAR HorizontalScrollbarA
ENCODING 18
SWIDTH 122 0
DWIDTH 12 0
BBX 12 27 0 -27
BITMAP
FFF0
FFF0
FFF0
FFF0
FFF0
FFF0
FFF0
FFF0
FFF0
FFF0
FFF0
FFF0
FFF0
FFF0
FFF0
FFF0
FFF0
FFF0
FFF0
FFF0
FFF0
FFF0
FFF0
FFF0
FFF0
FFF0
FFF0
ENDCHAR

STARTCHAR pupinout
ENCODING 19
SWIDTH 122 0
DWIDTH 37 0
BBX 37 18 0 -18
BITMAP
00001E0000
00001B0070
00001900F8
0000198088
000019FF88
0000198088
0000190088
0000190088
03FFF90088
01FFF90088
0000190088
000019FF88
000019FF98
700019FFF8
C8001F80F8
88001F00F8
D8001F0070
70001E0000
ENDCHAR

STARTCHAR pupin-in
ENCODING 20
SWIDTH 54 0
DWIDTH 19 0
BBX 19 19 0 -19
BITMAP
003C00
03E380
0FC3C0
1F00C0
3300C0
660020
660020
E60020
860060
8700E0
8300C0
E3C3C0
E3FFC0
61FF80
703F80
7C1F00
FFFE00
FFFC00
E00000
ENDCHAR

STARTCHAR defpupinout
ENCODING 21
SWIDTH 122 0
DWIDTH 37 0
BBX 37 22 0 -22
BITMAP
00001E0000
00001B0070
00001900F8
0000198088
000019FF88
0000198088
0000190088
0000190088
03FFF90088
01FFF90088
00FFF90088
1E0019FF88
3F0019FF98
618019FFF8
CC401F81F8
9F401F00F8
B3401F0070
B3401E0000
8E40000000
ECC0000000
6180000000
3F00000000
ENDCHAR

STARTCHAR C22
ENCODING 22
SWIDTH 122 0
DWIDTH 28 0
BBX 28 27 0 -27
BITMAP
3FFFFF00
600000C0
E00000E0
80000060
80000070
80000070
83FFF070
83FFF870
83001870
81802070
81802070
80C06070
8040C070
8040C070
80318070
80318070
80318070
801A0070
801A0070
800C0070
80040070
80000070
80000070
600000F0
7FFFFFF0
3FFFFFE0
0FFFFFC0
ENDCHAR

STARTCHAR abbrmenubuinv
ENCODING 23
SWIDTH 122 0
DWIDTH 28 0
BBX 28 27 0 -27
BITMAP
3FFFFF00
600000C0
EFFFFEE0
8FFFFE60
BFFFFF70
BFFFFF70
BFFFFF70
BE000F70
BFFFEF70
BF7FDF70
BF7FDF70
BFFFFF70
BFBFBF70
BFBFBF70
BFDFFF70
BFDEFF70
BFFFFF70
BFF5FF70
BFF5FF70
BFFBFF70
BFFFFF70
BFFFFF70
8FFFFE70
600000F0
7FFFFFF0
3FFFFFE0
0FFFFFC0
ENDCHAR

STARTCHAR buutonupleft
ENCODING 24
SWIDTH 122 0
DWIDTH 23 0
BBX 23 36 0 -36
BITMAP
0007FE
007800
00F800
01C000
070000
0E0000
0C0000
180000
300000
700000
600000
600000
600000
800000
800000
800000
800000
800000
800000
800000
800000
C00000
600000
600000
700000
700000
300000
080000
0C0000
0E0000
070000
000000
000000
000000
000000
000000
ENDCHAR

STARTCHAR buutonLL
ENCODING 25
SWIDTH 122 0
DWIDTH 23 0
BBX 23 35 0 -35
BITMAP
000000
000000
000000
000000
000000
000000
000000
000000
000000
000000
000000
000000
000000
000000
000000
000000
000000
000000
000000
000000
000000
000000
000000
000000
000000
000000
000000
000000
000000
000000
000000
03C000
01F800
007800
001FFE
ENDCHAR

STARTCHAR buttonLeftEndcapFill
ENCODING 26
SWIDTH 122 0
DWIDTH 23 0
BBX 23 36 0 -36
BITMAP
000000
0007FE
003FFE
003FFE
01FFFE
03FFFE
07FFFE
07FFFE
0FFFFE
0FFFFE
3FFFFE
3FFFFE
3FFFFE
7FFFFE
7FFFFE
7FFFFE
7FFFFE
7FFFFE
7FFFFE
7FFFFE
7FFFFE
7FFFFE
3FFFFE
3FFFFE
1FFFFE
0FFFFE
0FFFFE
07FFFE
03FFFE
03FFFE
00FFFE
003FFE
000FFE
0007FE
000000
000000
ENDCHAR

STARTCHAR buutonupLR
ENCODING 27
SWIDTH 122 0
DWIDTH 23 0
BBX 23 35 0 -35
BITMAP
000000
000000
000000
000000
0001C0
0000E0
000060
000030
000018
00001C
00001C
00000C
00000C
000002
000002
000002
000002
000002
000002
000002
000002
000002
00000C
00000C
00001C
00001C
000018
000030
000060
0000E0
0001C0
000700
003E00
003C00
FFC000
ENDCHAR

STARTCHAR buutonUL
ENCODING 28
SWIDTH 122 0
DWIDTH 23 0
BBX 23 35 0 -35
BITMAP
FFC000
003C00
003E00
000600
000000
000000
000000
000000
000000
000000
000000
000000
000000
000000
000000
000000
000000
000000
000000
000000
000000
000000
000000
000000
000000
000000
000000
000000
000000
000000
000000
000000
000000
000000
000000
ENDCHAR

STARTCHAR buutonRightEndcapFil
ENCODING 29
SWIDTH 122 0
DWIDTH 23 0
BBX 23 36 0 -36
BITMAP
000000
FFC000
FFF800
FFF800
FFFF00
FFFF80
FFFFC0
FFFFC0
FFFFE0
FFFFE0
FFFFF8
FFFFF8
FFFFF8
FFFFFC
FFFFFC
FFFFFC
FFFFFC
FFFFFC
FFFFFC
FFFFFC
FFFFFC
FFFFFC
FFFFF8
FFFFF8
FFFFF0
FFFFE0
FFFFE0
FFFFC0
FFFF80
FFFF80
FFFE00
FFF800
FFE000
FFC000
000000
000000
ENDCHAR

STARTCHAR BuTop-1
ENCODING 30
SWIDTH 122 0
DWIDTH 1 0
BBX 1 37 0 -37
BITMAP
80
00
00
00
00
00
00
00
00
00
00
00
00
00
00
00
00
00
00
00
00
00
00
00
00
00
00
00
00
00
00
00
00
00
00
00
00
ENDCHAR

STARTCHAR BuTop-2
ENCODING 31
SWIDTH 122 0
DWIDTH 2 0
BBX 2 37 0 -37
BITMAP
C0
00
00
00
00
00
00
00
00
00
00
00
00
00
00
00
00
00
00
00
00
00
00
00
00
00
00
00
00
00
00
00
00
00
00
00
00
ENDCHAR

STARTCHAR ButTop-4
ENCODING 32
SWIDTH 122 0
DWIDTH 4 0
BBX 4 37 0 -37
BITMAP
F0
00
00
00
00
00
00
00
00
00
00
00
00
00
00
00
00
00
00
00
00
00
00
00
00
00
00
00
00
00
00
00
00
00
00
00
00
ENDCHAR

STARTCHAR butTop-8
ENCODING 33
SWIDTH 122 0
DWIDTH 8 0
BBX 8 37 0 -37
BITMAP
FF
00
00
00
00
00
00
00
00
00
00
00
00
00
00
00
00
00
00
00
00
00
00
00
00
00
00
00
00
00
00
00
00
00
00
00
00
ENDCHAR

STARTCHAR butTop-16
ENCODING 34
SWIDTH 122 0
DWIDTH 16 0
BBX 16 37 0 -37
BITMAP
FFFF
0000
0000
0000
0000
0000
0000
0000
0000
0000
0000
0000
0000
0000
0000
0000
0000
0000
0000
0000
0000
0000
0000
0000
0000
0000
0000
0000
0000
0000
0000
0000
0000
0000
0000
0000
0000
ENDCHAR

STARTCHAR butBot-1
ENCODING 35
SWIDTH 122 0
DWIDTH 1 0
BBX 1 35 0 -35
BITMAP
00
00
00
00
00
00
00
00
00
00
00
00
00
00
00
00
00
00
00
00
00
00
00
00
00
00
00
00
00
00
00
00
00
00
80
ENDCHAR

STARTCHAR butBot-2
ENCODING 36
SWIDTH 122 0
DWIDTH 2 0
BBX 2 35 0 -35
BITMAP
00
00
00
00
00
00
00
00
00
00
00
00
00
00
00
00
00
00
00
00
00
00
00
00
00
00
00
00
00
00
00
00
00
00
C0
ENDCHAR

STARTCHAR butBot-4
ENCODING 37
SWIDTH 122 0
DWIDTH 4 0
BBX 4 35 0 -35
BITMAP
00
00
00
00
00
00
00
00
00
00
00
00
00
00
00
00
00
00
00
00
00
00
00
00
00
00
00
00
00
00
00
00
00
00
F0
ENDCHAR

STARTCHAR butBot-8
ENCODING 38
SWIDTH 122 0
DWIDTH 8 0
BBX 8 35 0 -35
BITMAP
00
00
00
00
00
00
00
00
00
00
00
00
00
00
00
00
00
00
00
00
00
00
00
00
00
00
00
00
00
00
00
00
00
00
FF
ENDCHAR

STARTCHAR butBot-16
ENCODING 39
SWIDTH 122 0
DWIDTH 16 0
BBX 16 35 0 -35
BITMAP
0000
0000
0000
0000
0000
0000
0000
0000
0000
0000
0000
0000
0000
0000
0000
0000
0000
0000
0000
0000
0000
0000
0000
0000
0000
0000
0000
0000
0000
0000
0000
0000
0000
0000
FFFF
ENDCHAR

STARTCHAR butFill-1
ENCODING 40
SWIDTH 122 0
DWIDTH 1 0
BBX 1 37 0 -37
BITMAP
00
80
80
80
80
80
80
80
80
80
80
80
80
80
80
80
80
80
80
80
80
80
80
80
80
80
80
80
80
80
80
80
80
00
00
00
00
ENDCHAR

STARTCHAR butFill-2
ENCODING 41
SWIDTH 122 0
DWIDTH 2 0
BBX 2 37 0 -37
BITMAP
00
C0
C0
C0
C0
C0
C0
C0
C0
C0
C0
C0
C0
C0
C0
C0
C0
C0
C0
C0
C0
C0
C0
C0
C0
C0
C0
C0
C0
C0
C0
C0
C0
00
00
00
00
ENDCHAR

STARTCHAR butFill-4
ENCODING 42
SWIDTH 122 0
DWIDTH 4 0
BBX 4 37 0 -37
BITMAP
00
F0
F0
F0
F0
F0
F0
F0
F0
F0
F0
F0
F0
F0
F0
F0
F0
F0
F0
F0
F0
F0
F0
F0
F0
F0
F0
F0
F0
F0
F0
F0
F0
00
00
00
00
ENDCHAR

STARTCHAR butFill-8
ENCODING 43
SWIDTH 122 0
DWIDTH 8 0
BBX 8 37 0 -37
BITMAP
00
FF
FF
FF
FF
FF
FF
FF
FF
FF
FF
FF
FF
FF
FF
FF
FF
FF
FF
FF
FF
FF
FF
FF
FF
FF
FF
FF
FF
FF
FF
FF
FF
00
00
00
00
ENDCHAR

STARTCHAR butFill-16
ENCODING 44
SWIDTH 122 0
DWIDTH 16 0
BBX 16 37 0 -37
BITMAP
0000
FFFF
FFFF
FFFF
FFFF
FFFF
FFFF
FFFF
FFFF
FFFF
FFFF
FFFF
FFFF
FFFF
FFFF
FFFF
FFFF
FFFF
FFFF
FFFF
FFFF
FFFF
FFFF
FFFF
FFFF
FFFF
FFFF
FFFF
FFFF
FFFF
FFFF
FFFF
FFFF
0000
0000
0000
0000
ENDCHAR

STARTCHAR VertMeMaUL
ENCODING 45
SWIDTH 122 0
DWIDTH 0 0
BBX 17 17 0 -17
BITMAP
FFFF80
FFFF80
C00000
600000
600000
300000
300000
300000
080000
080000
0C0000
060000
060000
030000
030000
030000
000000
ENDCHAR

STARTCHAR VertMeMaLR
ENCODING 46
SWIDTH 122 0
DWIDTH 0 0
BBX 17 17 0 -17
BITMAP
000000
000080
000180
000300
000300
000600
000600
000600
000800
000800
001800
003000
003000
006000
006000
00E000
008000
ENDCHAR

STARTCHAR VertMeMafill
ENCODING 47
SWIDTH 122 0
DWIDTH 17 0
BBX 17 17 0 -17
BITMAP
000000
7FFF00
7FFF00
3FFE00
3FFE00
0FF800
0FF800
0FF800
07F000
07F000
07F000
03E000
03E000
008000
008000
008000
000000
ENDCHAR

STARTCHAR HorizMeMaUL
ENCODING 48
SWIDTH 122 0
DWIDTH 0 0
BBX 16 17 0 -17
BITMAP
E000
F800
DF00
C700
C0E0
C038
C01F
C007
C000
C000
C000
C000
C000
C000
C000
C000
C000
ENDCHAR

STARTCHAR HorizMeMaLR
ENCODING 49
SWIDTH 122 0
DWIDTH 0 0
BBX 17 17 0 -17
BITMAP
000000
000000
000000
000000
000000
000000
000000
000000
000180
000700
001F00
003800
00E000
070000
1F0000
380000
600000
ENDCHAR

STARTCHAR HoriMeMafill
ENCODING 50
SWIDTH 122 0
DWIDTH 17 0
BBX 17 17 0 -17
BITMAP
000000
600000
780000
780000
7F0000
7FE000
7FF800
7FF800
7FFF00
7FF800
7FF800
7FE000
7F0000
780000
780000
600000
000000
ENDCHAR

STARTCHAR AbbMeBu-UL
ENCODING 51
SWIDTH 122 0
DWIDTH 27 0
BBX 27 27 0 -27
BITMAP
3FFFFF80
60000000
E0000000
80000000
80000000
80000000
80000000
80000000
80000000
80000000
80000000
80000000
80000000
80000000
80000000
80000000
80000000
80000000
80000000
80000000
80000000
80000000
80000000
80000000
E0000000
60000000
00000000
ENDCHAR

STARTCHAR AbbMeBu-LR
ENCODING 52
SWIDTH 122 0
DWIDTH 27 0
BBX 27 27 0 -27
BITMAP
00000000
000000C0
000000E0
00000020
00000020
00000020
00000020
00000020
00000020
00000020
00000020
00000020
00000020
00000020
00000020
00000020
00000020
00000020
00000020
00000020
00000020
00000020
00000020
00000020
000000E0
000000C0
3FFFFF80
ENDCHAR

STARTCHAR AbbMeBu-fill
ENCODING 53
SWIDTH 122 0
DWIDTH 27 0
BBX 27 27 0 -27
BITMAP
00000000
3FFFFF80
7FFFFFC0
7FFFFFC0
7FFFFFC0
7FFFFFC0
7FFFFFC0
7FFFFFC0
7FFFFFC0
7FFFFFC0
7FFFFFC0
7FFFFFC0
7FFFFFC0
7FFFFFC0
7FFFFFC0
7FFFFFC0
7FFFFFC0
7FFFFFC0
7FFFFFC0
7FFFFFC0
7FFFFFC0
7FFFFFC0
7FFFFFC0
7FFFFFC0
7FFFFFC0
3FFFFF80
00000000
ENDCHAR

STARTCHAR VertSc-UL
ENCODING 54
SWIDTH 122 0
DWIDTH 27 0
BBX 27 83 0 -83
BITMAP
7FFFFFC0
C0000000
80000000
80000000
80000000
80000000
80000000
80000000
80000000
80000000
80000000
80000000
80000000
80000000
80000000
80000000
80000000
80000000
80000000
80000000
80000000
80000000
80000000
80000000
80000000
80000000
C0000000
FFFFFF80
C0000000
80000000
80000000
80000000
80000000
80000000
80000000
80000000
80000000
80000000
80000000
80000000
80000000
80000000
80000000
80000000
80000000
80000000
80000000
80000000
80000000
80000000
80000000
80000000
80000000
80000000
80000000
80000000
80000000
80000000
80000000
80000000
80000000
80000000
80000000
80000000
80000000
80000000
80000000
80000000
80000000
80000000
80000000
80000000
80000000
80000000
80000000
80000000
80000000
80000000
80000000
80000000
80000000
80000000
00000000
ENDCHAR

STARTCHAR VertSc-LR
ENCODING 55
SWIDTH 122 0
DWIDTH 27 0
BBX 26 81 0 -81
BITMAP
00000000
00000040
00000040
00000040
00000040
00000040
00000040
000C0040
001E0040
003F0040
007F8040
00FFC040
01FFE040
03FFF040
07FFF840
0FFFFC40
0FFFFC40
0FFFFC40
00000040
00000040
00000040
00000040
00000040
00000040
00000040
00000040
00000040
00000040
00000040
00000040
00000040
00000040
00000040
00000040
00000040
00000040
00000040
00000040
00000040
00000040
00000040
00000040
00000040
00000040
00000040
00000040
00000040
00000040
00000040
00000040
00000040
00000040
00000040
7FFFFFC0
3FFFFFC0
00000040
00000040
00000040
00000040
00000040
00000040
00000040
00000040
0FFFFC40
0FFFFC40
0FFFFC40
07FFF840
03FFF040
01FFE040
00FFC040
007F8040
003F0040
001E0040
000C0040
00000040
00000040
00000040
00000040
00000040
000000C0
7FFFFFC0
ENDCHAR

STARTCHAR Vert-sb-bot-fill
ENCODING 56
SWIDTH 122 0
DWIDTH 27 0
BBX 27 28 0 -28
BITMAP
80000020
7FFFFF80
7FFFFF80
7FFFFF80
7FFFFF80
7FFFFF80
7FFFFF80
7FFFFF80
7FF3FF80
7FC1FF80
7F80FF80
7F807F80
7F003F80
7E001F80
78000F80
70000780
70000380
70000380
7FFFFF80
7FFFFF80
7FFFFF80
7FFFFF80
7FFFFF80
7FFFFF80
7FFFFF80
7FFFFF80
7FFFFF80
00000000
ENDCHAR

STARTCHAR HoriScb-UL
ENCODING 57
SWIDTH 122 0
DWIDTH 83 0
BBX 81 26 0 -26
BITMAP
7FFFFFFFFFFFFFFFFFFF80
C000003000000000000000
8000003000000000000000
8000003000000000000000
8000003000000000000000
8000003000000000000000
8000003000000000000000
8000003000000000000000
8000003000000000000000
8000003000000000000000
8000003000000000000000
8000003000000000000000
8000003000000000000000
8000003000000000000000
8000003000000000000000
8000003000000000000000
8000003000000000000000
8000003000000000000000
8000003000000000000000
8000003000000000000000
8000003000000000000000
8000003000000000000000
8000003000000000000000
8000003000000000000000
8000001000000000000000
8000000000000000000000
ENDCHAR

STARTCHAR HoriSc-LR
ENCODING 58
SWIDTH 122 0
DWIDTH 83 0
BBX 81 26 0 -26
BITMAP
0000000000000000000000
0000000000000400000080
0000000000000600000080
0000000000000600000080
0001C00000000601C00080
0003C00000000601E00080
0007C00000000601F00080
000FC00000000601F80080
001FC00000000601FC0080
003FC00000000601FE0080
007FC00000000601FF0080
00FFC00000000601FF8080
01FFC00000000601FFC080
01FFC00000000601FFC080
00FFC00000000601FF8080
007FC00000000601FF0080
003FC00000000601FE0080
001FC00000000601FC0080
000FC00000000601F80080
0007C00000000601F00080
0003C00000000601E00080
0001C00000000601C00080
0000000000000600000080
0000000000000600000080
0000000000000600000180
7FFFFFFFFFFFFFFFFFFF80
ENDCHAR

STARTCHAR Ver-sb-bot-fill
ENCODING 59
SWIDTH 122 0
DWIDTH 26 0
BBX 26 30 0 -30
BITMAP
00000000
7FFFFF80
7FFFFF80
7FFFFF80
7FFFFF80
7FFFFF80
7FFFFF80
7FFFFF80
7FFFFF80
7FFFFF80
7FFFFF80
7FFFFF80
70000380
70000380
78000780
7C000F80
7E001F80
7F003F80
7F807F80
7FC0FF80
7FE1FF80
7FF3FF80
7FFFFF80
7FFFFF80
7FFFFF80
7FFFFF80
7FFFFF80
7FFFFF80
7FFFFF80
00000000
ENDCHAR

STARTCHAR HoriSliContrUL
ENCODING 60
SWIDTH 122 0
DWIDTH 19 0
BBX 19 27 0 -27
BITMAP
7FFFC0
C00000
800000
800000
800000
800000
800000
800000
800000
800000
800000
800000
800000
800000
800000
800000
800000
800000
800000
800000
800000
800000
800000
800000
800000
800000
000000
ENDCHAR

STARTCHAR HoriSliContrLR
ENCODING 61
SWIDTH 122 0
DWIDTH 19 0
BBX 19 27 0 -27
BITMAP
000000
000020
000020
000020
000020
000020
000020
000020
000020
000020
000020
000020
000020
000020
000020
000020
000020
000020
000020
000020
000020
000020
000020
000020
000020
000060
7FFFC0
ENDCHAR

STARTCHAR HoriSliContrfill
ENCODING 62
SWIDTH 122 0
DWIDTH 19 0
BBX 19 27 0 -27
BITMAP
800020
7FFFC0
7FFFC0
7FFFC0
7FFFC0
7FFFC0
7FFFC0
7FFFC0
7FFFC0
7FFFC0
7FFFC0
7FFFC0
7FFFC0
7FFFC0
7FFFC0
7FFFC0
7FFFC0
7FFFC0
7FFFC0
7FFFC0
7FFFC0
7FFFC0
7FFFC0
7FFFC0
7FFFC0
7FFFC0
800020
ENDCHAR

STARTCHAR HoriSlid-UL
ENCODING 63
SWIDTH 122 0
DWIDTH 6 0
BBX 6 11 0 -11
BITMAP
1C
7C
60
C0
C0
C0
C0
C0
00
00
00
ENDCHAR

STARTCHAR @
ENCODING 64
SWIDTH 122 0
DWIDTH 6 0
BBX 6 11 0 -11
BITMAP
00
00
00
00
00
00
00
00
60
7C
1C
ENDCHAR

STARTCHAR HorizSlider-UR
ENCODING 65
SWIDTH 122 0
DWIDTH 4 0
BBX 6 11 0 -11
BITMAP
E0
F8
18
00
00
00
00
00
00
00
00
ENDCHAR

STARTCHAR B
ENCODING 66
SWIDTH 122 0
DWIDTH 6 0
BBX 6 11 0 -11
BITMAP
00
00
00
0C
0C
0C
0C
0C
18
F8
E0
ENDCHAR

STARTCHAR HorizSliderBot-1
ENCODING 67
SWIDTH 122 0
DWIDTH 1 0
BBX 1 11 0 -11
BITMAP
00
00
00
00
00
00
00
00
00
80
80
ENDCHAR

STARTCHAR HorizSliderBot-2
ENCODING 68
SWIDTH 122 0
DWIDTH 2 0
BBX 2 11 0 -11
BITMAP
00
00
00
00
00
00
00
00
00
C0
C0
ENDCHAR

STARTCHAR HorizSliderBot-4
ENCODING 69
SWIDTH 122 0
DWIDTH 4 0
BBX 4 11 0 -11
BITMAP
00
00
00
00
00
00
00
00
00
F0
F0
ENDCHAR

STARTCHAR HorizSliderBot-8
ENCODING 70
SWIDTH 122 0
DWIDTH 8 0
BBX 8 11 0 -11
BITMAP
00
00
00
00
00
00
00
00
00
FF
FF
ENDCHAR

STARTCHAR HorizSliderBot-16
ENCODING 71
SWIDTH 122 0
DWIDTH 16 0
BBX 16 11 0 -11
BITMAP
0000
0000
0000
0000
0000
0000
0000
0000
0000
FFFF
FFFF
ENDCHAR

STARTCHAR HorizSlidFill-1
ENCODING 72
SWIDTH 122 0
DWIDTH 1 0
BBX 1 11 0 -11
BITMAP
00
80
80
80
80
80
80
80
80
80
00
ENDCHAR

STARTCHAR HorizSlidFill-2
ENCODING 73
SWIDTH 122 0
DWIDTH 2 0
BBX 2 11 0 -11
BITMAP
00
C0
C0
C0
C0
C0
C0
C0
C0
C0
00
ENDCHAR

STARTCHAR HorizSlidFill-4
ENCODING 74
SWIDTH 122 0
DWIDTH 4 0
BBX 4 11 0 -11
BITMAP
00
F0
F0
F0
F0
F0
F0
F0
F0
F0
00
ENDCHAR

STARTCHAR HorizSlidFill-8
ENCODING 75
SWIDTH 122 0
DWIDTH 8 0
BBX 8 11 0 -11
BITMAP
00
FF
FF
FF
FF
FF
FF
FF
FF
FF
00
ENDCHAR

STARTCHAR HorizSlidFill-16
ENCODING 76
SWIDTH 122 0
DWIDTH 16 0
BBX 16 11 0 -11
BITMAP
0000
FFFF
FFFF
FFFF
FFFF
FFFF
FFFF
FFFF
FFFF
FFFF
0000
ENDCHAR

STARTCHAR HorSliderLeftEndCApF
ENCODING 77
SWIDTH 122 0
DWIDTH 6 0
BBX 6 11 0 -11
BITMAP
00
1C
1C
7C
7C
7C
7C
7C
1C
1C
00
ENDCHAR

STARTCHAR HorSliderRightEndCap
ENCODING 78
SWIDTH 122 0
DWIDTH 4 0
BBX 4 11 0 -11
BITMAP
00
E0
E0
F0
F0
F0
F0
F0
E0
E0
00
ENDCHAR

STARTCHAR VertSlider-TL
ENCODING 79
SWIDTH 122 0
DWIDTH 11 0
BBX 11 6 0 -6
BITMAP
1F00
7F00
6000
C000
C000
C000
ENDCHAR

STARTCHAR VertSlider-TR
ENCODING 80
SWIDTH 122 0
DWIDTH 11 0
BBX 11 6 0 -6
BITMAP
0000
00C0
00C0
0060
0060
0060
ENDCHAR

STARTCHAR VertSlider-TFill
ENCODING 81
SWIDTH 122 0
DWIDTH 11 0
BBX 12 6 0 -6
BITMAP
0000
1F00
3F00
7FC0
7FC0
7FC0
ENDCHAR

STARTCHAR VertSlider-LL
ENCODING 82
SWIDTH 122 0
DWIDTH 11 0
BBX 11 6 0 -6
BITMAP
C000
C000
C000
6000
6000
0000
ENDCHAR

STARTCHAR VertSlider-LR
ENCODING 83
SWIDTH 122 0
DWIDTH 11 0
BBX 11 6 0 -6
BITMAP
0060
0060
0060
00C0
1FC0
1F00
ENDCHAR

STARTCHAR VertSliderBotFill
ENCODING 84
SWIDTH 122 0
DWIDTH 11 0
BBX 11 6 0 -6
BITMAP
7FC0
7FC0
7FC0
1F00
1F00
0000
ENDCHAR

STARTCHAR VertSliderControl-TL
ENCODING 85
SWIDTH 122 0
DWIDTH 27 0
BBX 27 19 0 -19
BITMAP
7FFFFFC0
C0000000
80000000
80000000
80000000
80000000
80000000
80000000
80000000
80000000
80000000
80000000
80000000
80000000
80000000
80000000
80000000
80000000
00000000
ENDCHAR

STARTCHAR VertSliderControl-LR
ENCODING 86
SWIDTH 122 0
DWIDTH 27 0
BBX 27 19 0 -19
BITMAP
00000000
00000020
00000020
00000020
00000020
00000020
00000020
00000020
00000020
00000020
00000020
00000020
00000020
00000020
00000020
00000020
00000020
00000060
7FFFFFC0
ENDCHAR

STARTCHAR VertSliderControlFil
ENCODING 87
SWIDTH 122 0
DWIDTH 27 0
BBX 27 19 0 -19
BITMAP
80000020
7FFFFFC0
7FFFFFC0
7FFFFFC0
7FFFFFC0
7FFFFFC0
7FFFFFC0
7FFFFFC0
7FFFFFC0
7FFFFFC0
7FFFFFC0
7FFFFFC0
7FFFFFC0
7FFFFFC0
7FFFFFC0
7FFFFFC0
7FFFFFC0
7FFFFFC0
80000020
ENDCHAR

STARTCHAR ULresizeUL
ENCODING 88
SWIDTH 122 0
DWIDTH 18 0
BBX 18 18 0 -18
BITMAP
FFFFC0
C00000
800000
800000
800000
800000
800000
800000
800000
800000
800000
800000
800000
800000
800000
800000
800000
800000
ENDCHAR

STARTCHAR ULresizeLR
ENCODING 89
SWIDTH 122 0
DWIDTH 18 0
BBX 18 18 0 -18
BITMAP
000000
000040
000040
000040
000040
000040
03FFC0
03FFC0
030000
030000
030000
030000
030000
030000
030000
030000
030000
7F0000
ENDCHAR

STARTCHAR ULresizeFill
ENCODING 90
SWIDTH 122 0
DWIDTH 18 0
BBX 18 18 0 -18
BITMAP
000000
7FFF80
7FFF80
7FFF80
7FFF80
7FFF80
7FFF80
7E0000
7E0000
7E0000
7E0000
7E0000
7E0000
7E0000
7E0000
7E0000
7E0000
000000
ENDCHAR

STARTCHAR URResizeUL
ENCODING 91
SWIDTH 122 0
DWIDTH 18 0
BBX 18 18 0 -18
BITMAP
FFFFC0
C00000
800000
800000
800000
800000
800000
800000
003000
003000
003000
003000
003000
003000
003000
003000
003000
003000
ENDCHAR

STARTCHAR URResizeLR
ENCODING 92
SWIDTH 122 0
DWIDTH 18 0
BBX 18 18 0 -18
BITMAP
000000
000040
000040
000040
000040
000040
7FC040
7FC040
000040
000040
000040
000040
000040
000040
000040
000040
0000C0
001FC0
ENDCHAR

STARTCHAR URResizeFill
ENCODING 93
SWIDTH 122 0
DWIDTH 18 0
BBX 18 18 0 -18
BITMAP
000000
7FFF80
7FFF80
7FFF80
7FFF80
7FFF80
7FFF80
001F80
001F80
001F80
001F80
001F80
001F80
001F80
001F80
001F80
001F80
000000
ENDCHAR

STARTCHAR LRresizeUL
ENCODING 94
SWIDTH 122 0
DWIDTH 18 0
BBX 18 18 0 -18
BITMAP
003FC0
003000
003000
003000
003000
003000
003000
003000
003000
003000
FFF000
FFF000
800000
800000
800000
800000
800000
800000
ENDCHAR

STARTCHAR LRresizeLR
ENCODING 95
SWIDTH 122 0
DWIDTH 18 0
BBX 18 18 0 -18
BITMAP
000000
000040
000040
000040
000040
000040
000040
000040
000040
000040
000040
000040
000040
000040
000040
000040
0000C0
7FFFC0
ENDCHAR

STARTCHAR LRresizeFill
ENCODING 96
SWIDTH 122 0
DWIDTH 18 0
BBX 18 18 0 -18
BITMAP
000000
001F80
001F80
001F80
001F80
001F80
001F80
001F80
001F80
001F80
001F80
7FFF80
7FFF80
7FFF80
7FFF80
7FFF80
7FFF80
000000
ENDCHAR

STARTCHAR LLresizeUL
ENCODING 97
SWIDTH 122 0
DWIDTH 18 0
BBX 18 18 0 -18
BITMAP
FF0000
C00000
800000
800000
800000
800000
800000
800000
800000
800000
80FFC0
80FFC0
800000
800000
800000
800000
800000
800000
ENDCHAR

STARTCHAR LLresizeLR
ENCODING 98
SWIDTH 122 0
DWIDTH 18 0
BBX 18 18 0 -18
BITMAP
000000
030000
030000
030000
030000
030000
030000
030000
030000
030000
000000
000040
000040
000040
000040
000040
0000C0
7FFFC0
ENDCHAR

STARTCHAR LLresizeFill
ENCODING 99
SWIDTH 122 0
DWIDTH 18 0
BBX 17 17 0 -17
BITMAP
000000
7E0000
7E0000
7E0000
7E0000
7E0000
7E0000
7E0000
7E0000
7E0000
7E0000
7E0000
7FFF80
7FFF80
7FFF80
7FFF80
7FFF80
ENDCHAR

STARTCHAR PushPinOutTop
ENCODING 100
SWIDTH 122 0
DWIDTH 36 0
BBX 36 18 0 -18
BITMAP
00001E0000
00001800E0
00001801E0
0000180100
000018FF00
0000180100
0000180100
0000180100
03FFF80100
0000180100
0000180100
0000180100
0000180100
0000180000
0800180000
0800180000
1800180000
7000180000
ENDCHAR

STARTCHAR PushPinOutBottom
ENCODING 101
SWIDTH 122 0
DWIDTH 36 0
BBX 36 18 0 -18
BITMAP
0000000000
0000018000
0000018010
0000018010
0000018010
0000018010
0000018010
0000018010
0000018010
00FFE18110
000001FF10
000001FFF0
000001FFF0
70000181F0
C0000F80E0
80000F80E0
80000F8000
00000E0000
ENDCHAR

STARTCHAR PushPinOutFill
ENCODING 102
SWIDTH 122 0
DWIDTH 36 0
BBX 36 18 0 -18
BITMAP
0000000000
00000E0000
00000E00E0
00000E00E0
00000E00E0
00000EFEE0
00000EFEE0
00000EFEE0
00000EFEE0
00000EFEE0
00000EFEE0
00000EFEE0
00000E00E0
00000E0000
7000000000
7000000000
7000000000
0000000000
ENDCHAR

STARTCHAR PushPinInTop
ENCODING 103
SWIDTH 122 0
DWIDTH 19 0
BBX 19 19 0 -19
BITMAP
003C00
03E200
0FC200
1F0000
330000
660000
660000
E60000
860000
870000
800000
E00000
E00000
600000
600000
600000
C00000
800000
000000
ENDCHAR

STARTCHAR PushPinInBottom
ENCODING 104
SWIDTH 122 0
DWIDTH 19 0
BBX 19 19 0 -19
BITMAP
000000
000180
0001C0
0000C0
0000C0
000020
000020
000020
000060
0000E0
0300C0
03C3C0
03FFC0
01FF80
303F80
3C1F00
7FFE00
7FFC00
E3F000
ENDCHAR

STARTCHAR PushPinInFill
ENCODING 105
SWIDTH 122 0
DWIDTH 19 0
BBX 19 19 0 -19
BITMAP
000000
003C00
00FF00
01FF80
0FFF80
3BFFC0
3BFFC0
3BFFC0
7BFFC0
79FF80
7DFF80
3EFF00
3E3C00
3F0000
0FC000
03F000
03E000
000000
000000
ENDCHAR

STARTCHAR DefButRightEndCAp
ENCODING 106
SWIDTH 122 0
DWIDTH 23 0
BBX 23 33 0 -33
BITMAP
000000
000000
0003FE
0003FE
001C00
007000
00E000
018000
030000
060000
060000
0C0000
080000
080000
300000
300000
300000
300000
300000
300000
180000
080000
080000
060000
060000
070000
038000
018000
007000
001C00
000FFE
0003FE
000000
ENDCHAR

STARTCHAR DefButRightEndCAp
ENCODING 107
SWIDTH 122 0
DWIDTH 23 0
BBX 23 33 0 -33
BITMAP
000000
000000
FF8000
FF8000
007000
001C00
000E00
000300
000180
0000C0
0000C0
000060
000020
000020
000018
000018
000018
000018
000018
000018
000030
000020
000020
0000C0
0000C0
0001C0
000380
000300
001C00
007000
FFE000
FF8000
000000
ENDCHAR

STARTCHAR DefButMiddle-1
ENCODING 108
SWIDTH 122 0
DWIDTH 1 0
BBX 1 33 0 -33
BITMAP
00
00
80
80
00
00
00
00
00
00
00
00
00
00
00
00
00
00
00
00
00
00
00
00
00
00
00
00
00
00
80
80
00
ENDCHAR

STARTCHAR DefButMiddle-2
ENCODING 109
SWIDTH 122 0
DWIDTH 2 0
BBX 2 33 0 -33
BITMAP
00
00
C0
C0
00
00
00
00
00
00
00
00
00
00
00
00
00
00
00
00
00
00
00
00
00
00
00
00
00
00
C0
C0
00
ENDCHAR

STARTCHAR DefButMiddle-4
ENCODING 110
SWIDTH 122 0
DWIDTH 4 0
BBX 4 33 0 -33
BITMAP
00
00
F0
F0
00
00
00
00
00
00
00
00
00
00
00
00
00
00
00
00
00
00
00
00
00
00
00
00
00
00
F0
F0
00
ENDCHAR

STARTCHAR DefButMiddle-8
ENCODING 111
SWIDTH 122 0
DWIDTH 8 0
BBX 8 33 0 -33
BITMAP
00
00
FF
FF
00
00
00
00
00
00
00
00
00
00
00
00
00
00
00
00
00
00
00
00
00
00
00
00
00
00
FF
FF
00
ENDCHAR

STARTCHAR DefButMiddle-16
ENCODING 112
SWIDTH 122 0
DWIDTH 16 0
BBX 16 33 0 -33
BITMAP
0000
0000
FFFF
FFFF
0000
0000
0000
0000
0000
0000
0000
0000
0000
0000
0000
0000
0000
0000
0000
0000
0000
0000
0000
0000
0000
0000
0000
0000
0000
0000
FFFF
FFFF
0000
ENDCHAR

STARTCHAR BaseOff-SpecialChar
ENCODING 113
SWIDTH 122 0
DWIDTH 2 0
BBX 2 12 0 -12
BITMAP
C0
C0
C0
C0
C0
C0
C0
C0
C0
C0
C0
C0
ENDCHAR

STARTCHAR UnCheckedBox-UL
ENCODING 114
SWIDTH 122 0
DWIDTH 33 0
BBX 33 28 0 -28
BITMAP
0000000000
0000000000
FFFFFF8000
FFFFFFC000
8000000000
8000000000
8000000000
8000000000
8000000000
8000000000
8000000000
8000000000
8000000000
8000000000
8000000000
8000000000
8000000000
8000000000
8000000000
8000000000
8000000000
8000000000
8000000000
8000000000
8000000000
8000000000
8000000000
8000000000
ENDCHAR

STARTCHAR UnCheckedBox-LR
ENCODING 115
SWIDTH 122 0
DWIDTH 33 0
BBX 33 28 0 -28
BITMAP
0000000000
0000000000
0000000000
0000000000
000000C000
000000C000
000000C000
000000C000
000000C000
000000C000
000000C000
000000C000
000000C000
000000C000
000000C000
000000C000
000000C000
000000C000
000000C000
000000C000
000000C000
000000C000
000000C000
000000C000
000000C000
000000C000
000000C000
7FFFFFC000
ENDCHAR

STARTCHAR UnCheckedBoxFill
ENCODING 116
SWIDTH 122 0
DWIDTH 26 0
BBX 27 28 0 -28
BITMAP
00000000
00000000
00000000
00000000
7FFFFF80
7FFFFF80
7FFFFF80
7FFFFF80
7FFFFF80
7FFFFF80
7FFFFF80
7FFFFF80
7FFFFF80
7FFFFF80
7FFFFF80
7FFFFF80
7FFFFF80
7FFFFF80
7FFFFF80
7FFFFF80
7FFFFF80
7FFFFF80
7FFFFF80
7FFFFF80
7FFFFF80
7FFFFF80
7FFFFF80
00000000
ENDCHAR

STARTCHAR CheckMark
ENCODING 117
SWIDTH 122 0
DWIDTH 33 0
BBX 33 28 0 -28
BITMAP
0000000380
0000000F00
0000003F00
0000007800
000000F000
000007E000
00000FC000
00001F8000
00001F0000
00003E0000
0300FE0000
0781FE0000
0781FC0000
0FC3F80000
3FFFE00000
7FFFE00000
7FFFE00000
3FFFC00000
0FFF800000
07FF800000
07FF000000
03FE000000
01FE000000
007C000000
003C000000
003C000000
0018000000
0000000000
ENDCHAR

STARTCHAR CheckedBoxFill
ENCODING 118
SWIDTH 122 0
DWIDTH 33 0
BBX 35 30 0 -30
BITMAP
0000000000
0000000000
000000C000
000001C000
7FFFFF8000
7FFFFC0000
7FFFFC0000
7FFFF80000
7FFFF0C000
7FFFC1C000
7FFFC1C000
7EFF818000
787F038000
703C078000
701C1F8000
60081F8000
00001F8000
60003F8000
70007F8000
78007F8000
78007F8000
7E01FF8000
7F01FF8000
7F83FF8000
7F83FF8000
7FE3FF8000
7FF7FF8000
3FE7FF0000
0000000000
0000000000
ENDCHAR

STARTCHAR UnCheckedBoxOutline
ENCODING 119
SWIDTH 122 0
DWIDTH 33 0
BBX 33 28 0 -28
BITMAP
0000000000
0000000000
FFFFFF8000
FFFFFFC000
800000C000
800000C000
800000C000
800000C000
800000C000
800000C000
800000C000
800000C000
800000C000
800000C000
800000C000
800000C000
800000C000
800000C000
800000C000
800000C000
800000C000
800000C000
800000C000
800000C000
800000C000
800000C000
C00000C000
FFFFFFC000
ENDCHAR

STARTCHAR Horizgauge-UL
ENCODING 120
SWIDTH 122 0
DWIDTH 9 0
BBX 9 23 0 -23
BITMAP
0080
0700
0F00
0800
3000
6000
6000
E000
8000
8000
8000
8000
8000
8000
8000
E000
6000
6000
3000
0800
0800
0000
0000
ENDCHAR

STARTCHAR Horizgauge-LL
ENCODING 121
SWIDTH 122 0
DWIDTH 9 0
BBX 9 23 0 -23
BITMAP
0000
0000
0000
0000
0000
0000
0000
0000
0000
0000
0000
0000
0000
0000
0000
0000
0000
0000
0000
0000
0700
0700
0080
ENDCHAR

STARTCHAR Horizgauge-UR
ENCODING 122
SWIDTH 122 0
DWIDTH 9 0
BBX 9 22 0 -22
BITMAP
8000
7000
7000
0000
0000
0000
0000
0000
0000
0000
0000
0000
0000
0000
0000
0000
0000
0000
0000
0000
0000
0000
ENDCHAR

STARTCHAR Horizgauge-LR
ENCODING 123
SWIDTH 122 0
DWIDTH 9 0
BBX 9 23 0 -23
BITMAP
0000
0000
0800
0800
0600
0300
0300
0380
0080
0080
0080
0080
0080
0080
0080
0380
0300
0300
0600
0800
7800
7000
8000
ENDCHAR

STARTCHAR Horizgauge-MidleBot-
ENCODING 124
SWIDTH 122 0
DWIDTH 1 0
BBX 1 23 0 -23
BITMAP
00
00
00
00
00
00
00
00
00
00
00
00
00
00
00
00
00
00
00
00
00
00
80
ENDCHAR

STARTCHAR Horizgauge-MidleBot-
ENCODING 125
SWIDTH 122 0
DWIDTH 2 0
BBX 2 23 0 -23
BITMAP
00
00
00
00
00
00
00
00
00
00
00
00
00
00
00
00
00
00
00
00
00
00
C0
ENDCHAR

STARTCHAR Horizgauge-MidleBot-
ENCODING 126
SWIDTH 122 0
DWIDTH 4 0
BBX 4 23 0 -23
BITMAP
00
00
00
00
00
00
00
00
00
00
00
00
00
00
00
00
00
00
00
00
00
00
F0
ENDCHAR

STARTCHAR Horizgauge-MidleBot-
ENCODING 127
SWIDTH 122 0
DWIDTH 8 0
BBX 8 23 0 -23
BITMAP
00
00
00
00
00
00
00
00
00
00
00
00
00
00
00
00
00
00
00
00
00
00
FF
ENDCHAR

STARTCHAR Horizgauge-MidleBot-
ENCODING 128
SWIDTH 122 0
DWIDTH 16 0
BBX 16 23 0 -23
BITMAP
0000
0000
0000
0000
0000
0000
0000
0000
0000
0000
0000
0000
0000
0000
0000
0000
0000
0000
0000
0000
0000
0000
FFFF
ENDCHAR

STARTCHAR VertGauge-UL
ENCODING 129
SWIDTH 122 0
DWIDTH 22 0
BBX 22 9 0 -9
BITMAP
00FF00
0701C0
0F00C0
080000
300000
600000
600000
600000
800000
ENDCHAR

STARTCHAR VertGauge-UR
ENCODING 130
SWIDTH 122 0
DWIDTH 23 0
BBX 23 9 0 -9
BITMAP
000000
000000
000020
000020
000018
00000C
00000C
00000C
000002
ENDCHAR

STARTCHAR VertGauge-LL
ENCODING 131
SWIDTH 122 0
DWIDTH 23 0
BBX 23 9 0 -9
BITMAP
800000
600000
600000
600000
300000
080000
080000
000000
000000
ENDCHAR

STARTCHAR VertGauge-LR
ENCODING 132
SWIDTH 122 0
DWIDTH 22 0
BBX 22 9 0 -9
BITMAP
000004
000018
000018
000018
000030
000040
0C03C0
0E0380
03FC00
ENDCHAR

STARTCHAR VertAbbrScroBarUL
ENCODING 133
SWIDTH 122 0
DWIDTH 33 0
BBX 27 56 0 -56
BITMAP
7FFFFFC0
C0000000
80000000
80000000
80000000
80000000
80000000
80000000
80000000
80000000
80000000
80000000
80000000
80000000
80000000
80000000
80000000
80000000
80000000
80000000
80000000
80000000
80000000
80000000
80000000
80000000
80000000
80000000
80000000
80000000
80000000
80000000
80000000
80000000
80000000
80000000
80000000
80000000
80000000
80000000
80000000
80000000
80000000
80000000
80000000
80000000
80000000
80000000
80000000
80000000
80000000
80000000
80000000
80000000
80000000
00000000
ENDCHAR

STARTCHAR VertAbbrScroBarLR
ENCODING 134
SWIDTH 122 0
DWIDTH 27 0
BBX 26 55 0 -55
BITMAP
00000000
00000040
00000040
00000040
00000040
00000040
00000040
000C0040
001E0040
003F0040
007F8040
00FFC040
01FFE040
03FFF040
07FFF840
0FFFFC40
0FFFFC40
0FFFFC40
00000040
00000040
00000040
00000040
00000040
00000040
00000040
00000040
000000C0
7FFFFFC0
000000C0
00000040
00000040
00000040
00000040
00000040
00000040
00000040
00000040
0FFFFC40
0FFFFC40
0FFFFC40
07FFF840
03FFF040
01FFE040
00FFC040
007F8040
003F0040
001E0040
000C0040
00000040
00000040
00000040
00000040
00000040
000000C0
7FFFFFC0
ENDCHAR

STARTCHAR Horiz-sb-rightbox-fi
ENCODING 135
SWIDTH 122 0
DWIDTH 30 0
BBX 30 27 0 -27
BITMAP
0000000C
7FFFFFE0
7FFFFFF0
7FFFFFF0
7FE7FFF0
7FE3FFF0
7FE1FFF0
7FE0FFF0
7FE07FF0
7FE03FF0
7FE01FF0
7FE00FF0
7FE007F0
7FE007F0
7FE01FF0
7FE03FF0
7FE03FF0
7FE07FF0
7FE1FFF0
7FE3FFF0
7FE7FFF0
7FE7FFF0
7FFFFFF0
7FFFFFF0
3FFFFFE0
00000000
0000000C
ENDCHAR

STARTCHAR HoriabbScrBa-UL
ENCODING 136
SWIDTH 122 0
DWIDTH 56 0
BBX 57 27 0 -27
BITMAP
7FFFFFFFFFFFFE00
C000000000000000
8000000000000000
8000000000000000
8000000000000000
8000000000000000
8000000000000000
8000000000000000
8000000000000000
8000000000000000
8000000000000000
8000000000000000
8000000000000000
8000000000000000
8000000000000000
8000000000000000
8000000000000000
8000000000000000
8000000000000000
8000000000000000
8000000000000000
8000000000000000
8000000000000000
8000000000000000
8000000000000000
8000000000000000
0000000000000000
ENDCHAR

STARTCHAR HorizAbbScroBa-LR
ENCODING 137
SWIDTH 122 0
DWIDTH 56 0
BBX 55 26 0 -26
BITMAP
00000000000000
00000010000002
00000010000002
00000010000002
0001C010070002
0003C010078002
0007C01007C002
000FC01007E002
001FC01007F002
003FC01007F802
007FC01007FC02
00FFC01007FE02
01FFC01007FF02
01FFC01007FF02
00FFC01007FE02
007FC01007FC02
003FC01007F802
001FC01007F002
000FC01007E002
0007C01007C002
0003C010078002
0001C010070002
00000010000002
00000010000002
00000038000006
7FFFFFFFFFFFFE
ENDCHAR

STARTCHAR Horiz-sb-leftbox-fil
ENCODING 138
SWIDTH 122 0
DWIDTH 28 0
BBX 27 27 0 -27
BITMAP
80000000
7FFFFFE0
7FFFFFE0
7FFFFFE0
7FFF3FE0
7FFC3FE0
7FFC3FE0
7FF83FE0
7FF03FE0
7FC03FE0
7F803FE0
7F803FE0
7F003FE0
7F003FE0
7F803FE0
7FC03FE0
7FE03FE0
7FF03FE0
7FF83FE0
7FFC3FE0
7FFE3FE0
7FFF3FE0
7FFFFFE0
7FFFFFE0
7FFFFFE0
00000000
80000000
ENDCHAR

STARTCHAR ButOutlLeftEndCAp
ENCODING 139
SWIDTH 122 0
DWIDTH 23 0
BBX 23 36 0 -36
BITMAP
0007FE
007800
00F800
01C000
070000
0E0000
0C0000
180000
300000
700000
600000
600000
600000
800000
800000
800000
800000
800000
800000
800000
800000
C00000
600000
600000
700000
700000
300000
080000
0C0000
0E0000
070000
03C000
007800
007FFE
003FFE
0003FE
ENDCHAR

STARTCHAR ButOutRightEndCap
ENCODING 140
SWIDTH 122 0
DWIDTH 24 0
BBX 24 36 0 -36
BITMAP
FFC000
003C00
003E00
000E00
0001C0
0000E0
000070
000030
000010
00001C
00000E
00000E
00000E
000006
000007
000007
000007
000007
000007
000007
000007
000007
00000F
00000E
00001E
00001E
00001C
00007C
0000F8
0001F0
0001F0
000FE0
003FC0
FFFF80
FFFE00
FFF000
ENDCHAR

STARTCHAR ButOutlMiddle-1
ENCODING 141
SWIDTH 122 0
DWIDTH 1 0
BBX 1 36 0 -36
BITMAP
80
00
00
00
00
00
00
00
00
00
00
00
00
00
00
00
00
00
00
00
00
00
00
00
00
00
00
00
00
00
00
00
00
80
80
80
ENDCHAR

STARTCHAR ButOutlMiddle-2
ENCODING 142
SWIDTH 122 0
DWIDTH 2 0
BBX 2 36 0 -36
BITMAP
C0
00
00
00
00
00
00
00
00
00
00
00
00
00
00
00
00
00
00
00
00
00
00
00
00
00
00
00
00
00
00
00
00
C0
C0
C0
ENDCHAR

STARTCHAR ButOutlMiddle-4
ENCODING 143
SWIDTH 122 0
DWIDTH 4 0
BBX 4 36 0 -36
BITMAP
F0
00
00
00
00
00
00
00
00
00
00
00
00
00
00
00
00
00
00
00
00
00
00
00
00
00
00
00
00
00
00
00
00
F0
F0
F0
ENDCHAR

STARTCHAR ButOutlMiddle-8
ENCODING 144
SWIDTH 122 0
DWIDTH 8 0
BBX 8 36 0 -36
BITMAP
FF
00
00
00
00
00
00
00
00
00
00
00
00
00
00
00
00
00
00
00
00
00
00
00
00
00
00
00
00
00
00
00
00
FF
FF
FF
ENDCHAR

STARTCHAR ButOutlMiddle-16
ENCODING 145
SWIDTH 122 0
DWIDTH 16 0
BBX 16 36 0 -36
BITMAP
FFFF
0000
0000
0000
0000
0000
0000
0000
0000
0000
0000
0000
0000
0000
0000
0000
0000
0000
0000
0000
0000
0000
0000
0000
0000
0000
0000
0000
0000
0000
0000
0000
0000
FFFF
FFFF
FFFF
ENDCHAR

STARTCHAR ButOutlLeftEndCApFil
ENCODING 146
SWIDTH 122 0
DWIDTH 23 0
BBX 23 35 0 -35
BITMAP
000000
000000
000000
000000
0003FE
001FFE
007FFE
007FFE
01FFFE
03FFFE
03FFFE
03FFFE
07FFFE
07FFFE
0FFFFE
0FFFFE
0FFFFE
0FFFFE
0FFFFE
0FFFFE
0FFFFE
07FFFE
07FFFE
03FFFE
03FFFE
03FFFE
01FFFE
007FFE
007FFE
001FFE
0003FE
000000
000000
000000
000000
ENDCHAR

STARTCHAR ButOutlRightEndCap
ENCODING 147
SWIDTH 122 0
DWIDTH 19 0
BBX 23 35 0 -35
BITMAP
000000
000000
000000
000000
FF8000
FFF000
FFFC00
FFFC00
FFFF00
FFFF80
FFFF80
FFFF80
FFFFC0
FFFFC0
FFFFE0
FFFFE0
FFFFE0
FFFFE0
FFFFE0
FFFFE0
FFFFE0
FFFFC0
FFFFC0
FFFF80
FFFF80
FFFF80
FFFF00
FFFC00
FFFC00
FFF000
FF8000
000000
000000
000000
000000
ENDCHAR

STARTCHAR ButOutlMiddleFill-1
ENCODING 148
SWIDTH 122 0
DWIDTH 1 0
BBX 1 35 0 -35
BITMAP
00
00
00
00
80
80
80
80
80
80
80
80
80
80
80
80
80
80
80
80
80
80
80
80
80
80
80
80
80
80
80
00
00
00
00
ENDCHAR

STARTCHAR ButOutlMiddleFill-2
ENCODING 149
SWIDTH 122 0
DWIDTH 2 0
BBX 2 35 0 -35
BITMAP
00
00
00
00
C0
C0
C0
C0
C0
C0
C0
C0
C0
C0
C0
C0
C0
C0
C0
C0
C0
C0
C0
C0
C0
C0
C0
C0
C0
C0
C0
00
00
00
00
ENDCHAR

STARTCHAR ButOutlMiddleFill-4
ENCODING 150
SWIDTH 122 0
DWIDTH 4 0
BBX 4 35 0 -35
BITMAP
00
00
00
00
F0
F0
F0
F0
F0
F0
F0
F0
F0
F0
F0
F0
F0
F0
F0
F0
F0
F0
F0
F0
F0
F0
F0
F0
F0
F0
F0
00
00
00
00
ENDCHAR

STARTCHAR ButOutlMiddleFill-8
ENCODING 151
SWIDTH 122 0
DWIDTH 8 0
BBX 8 35 0 -35
BITMAP
00
00
00
00
FF
FF
FF
FF
FF
FF
FF
FF
FF
FF
FF
FF
FF
FF
FF
FF
FF
FF
FF
FF
FF
FF
FF
FF
FF
FF
FF
00
00
00
00
ENDCHAR

STARTCHAR ButOutlMiddleFill-16
ENCODING 152
SWIDTH 122 0
DWIDTH 16 0
BBX 16 35 0 -35
BITMAP
0000
0000
0000
0000
FFFF
FFFF
FFFF
FFFF
FFFF
FFFF
FFFF
FFFF
FFFF
FFFF
FFFF
FFFF
FFFF
FFFF
FFFF
FFFF
FFFF
FFFF
FFFF
FFFF
FFFF
FFFF
FFFF
FFFF
FFFF
FFFF
FFFF
0000
0000
0000
0000
ENDCHAR

STARTCHAR MenuDfltOutlLeftEndc
ENCODING 153
SWIDTH 122 0
DWIDTH 18 0
BBX 18 30 0 -30
BITMAP
003FC0
00FFC0
07C000
070000
080000
300000
300000
300000
600000
600000
C00000
800000
800000
800000
800000
800000
800000
800000
800000
C00000
600000
600000
300000
300000
300000
080000
070000
07C000
00FFC0
003FC0
ENDCHAR

STARTCHAR MenuDfltOutlRightEnd
ENCODING 154
SWIDTH 122 0
DWIDTH 18 0
BBX 18 30 0 -30
BITMAP
FF0000
FFC000
00F800
003800
000400
000300
000300
000300
000180
000180
0000C0
000040
000040
000040
000040
000040
000040
000040
000040
0000C0
000180
000180
000300
000300
000300
000400
003800
00F800
FFC000
FF0000
ENDCHAR

STARTCHAR MenuDfltOutlMiddle-1
ENCODING 155
SWIDTH 122 0
DWIDTH 1 0
BBX 1 30 0 -30
BITMAP
80
80
00
00
00
00
00
00
00
00
00
00
00
00
00
00
00
00
00
00
00
00
00
00
00
00
00
00
80
80
ENDCHAR

STARTCHAR MenuDfltOutlMiddle-2
ENCODING 156
SWIDTH 122 0
DWIDTH 2 0
BBX 2 30 0 -30
BITMAP
C0
C0
00
00
00
00
00
00
00
00
00
00
00
00
00
00
00
00
00
00
00
00
00
00
00
00
00
00
C0
C0
ENDCHAR

STARTCHAR MenuDfltOutlMiddle-4
ENCODING 157
SWIDTH 122 0
DWIDTH 4 0
BBX 4 30 0 -30
BITMAP
F0
F0
00
00
00
00
00
00
00
00
00
00
00
00
00
00
00
00
00
00
00
00
00
00
00
00
00
00
F0
F0
ENDCHAR

STARTCHAR MenuDfltOutlMiddle-8
ENCODING 158
SWIDTH 122 0
DWIDTH 8 0
BBX 8 30 0 -30
BITMAP
FF
FF
00
00
00
00
00
00
00
00
00
00
00
00
00
00
00
00
00
00
00
00
00
00
00
00
00
00
FF
FF
ENDCHAR

STARTCHAR MenuDfltOutlMiddle-1
ENCODING 159
SWIDTH 122 0
DWIDTH 16 0
BBX 16 30 0 -30
BITMAP
FFFF
FFFF
0000
0000
0000
0000
0000
0000
0000
0000
0000
0000
0000
0000
0000
0000
0000
0000
0000
0000
0000
0000
0000
0000
0000
0000
0000
0000
FFFF
FFFF
ENDCHAR

STARTCHAR ButtonSpecial-UL
ENCODING 160
SWIDTH 122 0
DWIDTH 9 0
BBX 9 9 0 -9
BITMAP
0780
3C00
7800
6000
6000
C000
8000
8000
8000
ENDCHAR

STARTCHAR ButtonSpecial-LL
ENCODING 161
SWIDTH 122 0
DWIDTH 8 0
BBX 9 9 0 -9
BITMAP
8000
8000
8000
C000
6000
6000
7800
3C00
0780
ENDCHAR

STARTCHAR REsizeOutl-UL
ENCODING 162
SWIDTH 122 0
DWIDTH 18 0
BBX 18 18 0 -18
BITMAP
FFFFC0
C000C0
800040
800040
800040
800040
83FFC0
83FFC0
830000
830000
830000
830000
830000
830000
830000
830000
C30000
FF0000
ENDCHAR

STARTCHAR REsizeOutl-UR
ENCODING 163
SWIDTH 122 0
DWIDTH 18 0
BBX 18 18 0 -18
BITMAP
FFFFC0
C000C0
800040
800040
800040
800040
FFF040
FFF040
003040
003040
003040
003040
003040
003040
003040
003040
0030C0
003FC0
ENDCHAR

STARTCHAR REsizeOutl-LR
ENCODING 164
SWIDTH 122 0
DWIDTH 18 0
BBX 18 18 0 -18
BITMAP
003FC0
0030C0
003040
003040
003040
003040
003040
003040
003040
003040
FFF040
FFF040
800040
800040
800040
800040
C000C0
FFFFC0
ENDCHAR

STARTCHAR REsizeOutl-LL
ENCODING 165
SWIDTH 122 0
DWIDTH 18 0
BBX 18 18 0 -18
BITMAP
FF0000
C30000
830000
830000
830000
830000
830000
830000
830000
830000
83FFC0
83FFC0
800040
800040
800040
800040
C000C0
FFFFC0
ENDCHAR

STARTCHAR VerticalScrollbarEle
ENCODING 166
SWIDTH 122 0
DWIDTH 27 0
BBX 27 83 0 -83
BITMAP
7FFFFFC0
C00000E0
800000E0
800000E0
800000E0
800000E0
800000E0
800000E0
801800E0
803400E0
807B00E0
80FF80E0
81BF80E0
835B40E0
87B5A0E0
8FFFF8E0
8FFFF8E0
86B5A0E0
800000E0
800000E0
800000E0
800000E0
800000E0
800000E0
800000E0
800000E0
C00000E0
FFFFFFE0
C00000E0
800000E0
800000E0
800000E0
800000E0
800000E0
800000E0
800000E0
800000E0
800000E0
800000E0
800000E0
800000E0
800000E0
800000E0
800000E0
800000E0
800000E0
800000E0
800000E0
800000E0
800000E0
800000E0
800000E0
800000E0
FFFFFFE0
FFFFFFE0
800000E0
800000E0
800000E0
800000E0
800000E0
800000E0
800000E0
800000E0
800000E0
8FFFFCE0
8FFFFCE0
8FFFFCE0
87FFF8E0
83FFE0E0
80FFC0E0
807F80E0
807F80E0
803F00E0
801C00E0
800000E0
800000E0
800000E0
800000E0
800000E0
800000E0
FFFFFFE0
FFFFFFE0
7FFFFFC0
ENDCHAR

STARTCHAR VerticalScrollbarEle
ENCODING 167
SWIDTH 122 0
DWIDTH 28 0
BBX 27 83 0 -83
BITMAP
7FFFFFC0
C00000E0
800000E0
800000E0
800000E0
800000E0
800000E0
800C00E0
801C00E0
803F00E0
807F80E0
80FFC0E0
81FFC0E0
83FFE0E0
87FFF8E0
8FFFFCE0
8FFFFCE0
8FFFFCE0
800000E0
800000E0
800000E0
800000E0
800000E0
800000E0
800000E0
800000E0
C00000E0
FFFFFFE0
C00000E0
800000E0
800000E0
800000E0
800000E0
800000E0
800000E0
800000E0
800000E0
800000E0
800000E0
800000E0
800000E0
800000E0
800000E0
800000E0
800000E0
800000E0
800000E0
800000E0
800000E0
800000E0
800000E0
800000E0
800000E0
FFFFFFE0
FFFFFFE0
800000E0
800000E0
800000E0
800000E0
800000E0
800000E0
800000E0
800000E0
800000E0
86B5A0E0
8B7BD8E0
8FFFF0E0
87FFE0E0
837BC0E0
80B580E0
807B00E0
807E00E0
803400E0
801800E0
800000E0
800000E0
800000E0
800000E0
800000E0
800000E0
FFFFFFE0
FFFFFFE0
7FFFFFC0
ENDCHAR

STARTCHAR VerticalScrollbarEle
ENCODING 168
SWIDTH 122 0
DWIDTH 27 0
BBX 27 83 0 -83
BITMAP
7FFFFFC0
C00000E0
800000E0
800000E0
800000E0
800000E0
800000E0
800000E0
801800E0
803400E0
807B00E0
80FF80E0
81BF80E0
835B40E0
87B5A0E0
8FFFF8E0
8FFFF8E0
86B5A0E0
800000E0
800000E0
800000E0
800000E0
800000E0
800000E0
800000E0
800000E0
C00000E0
FFFFFFE0
C00000E0
800000E0
800000E0
800000E0
800000E0
800000E0
800000E0
800000E0
800000E0
800000E0
800000E0
800000E0
800000E0
800000E0
800000E0
800000E0
800000E0
800000E0
800000E0
800000E0
800000E0
800000E0
800000E0
800000E0
800000E0
FFFFFFE0
FFFFFFE0
800000E0
800000E0
800000E0
800000E0
800000E0
800000E0
800000E0
800000E0
800000E0
86B5A0E0
8B7BD8E0
8FFFF0E0
87FFE0E0
837BC0E0
80B580E0
807B00E0
807E00E0
803400E0
801800E0
800000E0
800000E0
800000E0
800000E0
800000E0
800000E0
FFFFFFE0
FFFFFFE0
7FFFFFC0
ENDCHAR

STARTCHAR HorizontalScrollbarE
ENCODING 169
SWIDTH 122 0
DWIDTH 83 0
BBX 83 27 0 -27
BITMAP
7FFFFFFFFFFFFFFFFFFFC0
C0000038000006000000E0
80000010000006000000E0
80000010000006000000E0
8000001000000600E000E0
8001801000000600F000E0
8003C01000000600F800E0
8003C01000000600F800E0
8005801000000600FC00E0
801BC01000000600FF00E0
803F801000000600FF80E0
807FC01000000600FFC0E0
805BC01000000600FFC0E0
81B5801000000600FFC0E0
805BC01000000600FF80E0
807FC01000000600FF80E0
803F801000000600FF00E0
801BC01000000600FC00E0
8005801000000600F800E0
8003C01000000600F000E0
8003C01000000600F000E0
8001801000000600E000E0
80000010000006000000E0
80000010000006000000E0
FFFFFFFFFFFFFFFFFFFFE0
FFFFFFFFFFFFFFFFFFFFE0
7FFFFFFFFFFFFFFFFFFFC0
ENDCHAR

STARTCHAR HorizontalScrollbarE
ENCODING 170
SWIDTH 122 0
DWIDTH 84 0
BBX 83 27 0 -27
BITMAP
7FFFFFFFFFFFFFFFFFFFC0
C0000038000006000000E0
80000010000006000000E0
80000010000006000000E0
8001C010000006006000E0
8003C01000000600B000E0
8007C01000000600F800E0
800FC010000006007800E0
801FC01000000600B400E0
803FC010000006007B00E0
807FC01000000600FF80E0
80FFC01000000600FFC0E0
81FFC010000006007B40E0
81FFC01000000600B580E0
807FC010000006007B00E0
807FC01000000600FE00E0
803FC01000000600FC00E0
801FC010000006007800E0
8007C01000000600B000E0
8003C010000006006000E0
8003C010000006004000E0
8001C010000006000000E0
80000010000006000000E0
80000010000006000000E0
FFFFFFFFFFFFFFFFFFFFE0
FFFFFFFFFFFFFFFFFFFFE0
7FFFFFFFFFFFFFFFFFFFC0
ENDCHAR

STARTCHAR HorizontalScrollbarE
ENCODING 171
SWIDTH 122 0
DWIDTH 83 0
BBX 83 27 0 -27
BITMAP
7FFFFFFFFFFFFFFFFFFFC0
C0000038000006000000E0
80000010000006000000E0
80000010000006000000E0
80000010000006006000E0
8001801000000600B000E0
8003C01000000600F800E0
8003C010000006007800E0
8005801000000600B400E0
801BC010000006007B00E0
803F801000000600FF80E0
807FC01000000600FFC0E0
805BC010000006007B40E0
81B5801000000600B580E0
805BC010000006007B00E0
807FC01000000600FE00E0
803F801000000600FC00E0
801BC010000006007800E0
8005801000000600B000E0
8003C010000006006000E0
8003C010000006004000E0
80018010000006000000E0
80000010000006000000E0
80000010000006000000E0
FFFFFFFFFFFFFFFFFFFFE0
FFFFFFFFFFFFFFFFFFFFE0
7FFFFFFFFFFFFFFFFFFFC0
ENDCHAR

STARTCHAR C172
ENCODING 172
SWIDTH 122 0
DWIDTH 19 0
BBX 19 27 0 -27
BITMAP
7FFFC0
C000E0
8000E0
8000E0
8000E0
8000E0
8000E0
8000E0
8000E0
8000E0
8000E0
8000E0
8000E0
8000E0
8000E0
8000E0
8000E0
8000E0
8000E0
8000E0
8000E0
8000E0
8000E0
8000E0
FFFFE0
FFFFE0
7FFFC0
ENDCHAR

STARTCHAR HorizSliderLeftEndca
ENCODING 173
SWIDTH 122 0
DWIDTH 6 0
BBX 6 11 0 -11
BITMAP
1C
7C
60
C0
C0
C0
C0
C0
60
7C
1C
ENDCHAR

STARTCHAR HorizSliderRightEndc
ENCODING 174
SWIDTH 122 0
DWIDTH 6 0
BBX 6 11 0 -11
BITMAP
E0
F8
18
0C
0C
0C
0C
0C
18
F8
E0
ENDCHAR

STARTCHAR HorizSliderMiddle-1
ENCODING 175
SWIDTH 122 0
DWIDTH 1 0
BBX 1 11 0 -11
BITMAP
80
80
00
00
00
00
00
00
00
80
80
ENDCHAR

STARTCHAR HorizSliderMiddle-2
ENCODING 176
SWIDTH 122 0
DWIDTH 2 0
BBX 2 11 0 -11
BITMAP
C0
C0
00
00
00
00
00
00
00
C0
C0
ENDCHAR

STARTCHAR HorizSliderMiddle-4
ENCODING 177
SWIDTH 122 0
DWIDTH 4 0
BBX 4 11 0 -11
BITMAP
F0
F0
00
00
00
00
00
00
00
F0
F0
ENDCHAR

STARTCHAR HorizSliderMiddle-8
ENCODING 178
SWIDTH 122 0
DWIDTH 8 0
BBX 8 11 0 -11
BITMAP
FF
FF
00
00
00
00
00
00
00
FF
FF
ENDCHAR

STARTCHAR HorizSliderMiddle-16
ENCODING 179
SWIDTH 122 0
DWIDTH 16 0
BBX 16 11 0 -11
BITMAP
FFFF
FFFF
0000
0000
0000
0000
0000
0000
0000
FFFF
FFFF
ENDCHAR

STARTCHAR VertSliderTopEndcap
ENCODING 180
SWIDTH 122 0
DWIDTH 11 0
BBX 11 6 0 -6
BITMAP
1F00
7FC0
60C0
C060
C060
C060
ENDCHAR

STARTCHAR VertSliderBottomEndc
ENCODING 181
SWIDTH 122 0
DWIDTH 11 0
BBX 11 6 0 -6
BITMAP
C060
C060
C060
60C0
7FC0
1F00
ENDCHAR

STARTCHAR VertSliderControlOut
ENCODING 182
SWIDTH 122 0
DWIDTH 27 0
BBX 27 19 0 -19
BITMAP
7FFFFFC0
C00000E0
800000E0
800000E0
800000E0
800000E0
800000E0
800000E0
800000E0
800000E0
800000E0
800000E0
800000E0
800000E0
800000E0
800000E0
FFFFFFE0
FFFFFFE0
7FFFFFC0
ENDCHAR

STARTCHAR PushPinOutDefTop
ENCODING 183
SWIDTH 122 0
DWIDTH 35 0
BBX 35 19 0 -19
BITMAP
00001F0000
00001800E0
00001801E0
0000180180
000018FF80
0000180180
0000180180
01FFF80180
03FFF80180
0000180180
0000180180
1F00180180
3F00180100
6000180000
8000180000
8300180000
8300180000
8300180000
8E00000000
ENDCHAR

STARTCHAR PushPinDefOutBottom
ENCODING 184
SWIDTH 122 0
DWIDTH 36 0
BBX 36 22 0 -22
BITMAP
0000000000
0000018000
0000018010
0000018010
0000018010
0000018010
0000018010
0000018010
0000018010
00FFE18110
00FFE1FF10
000001FFF0
000001FFF0
00800181F0
0E400F80E0
1C400F80E0
30400F8000
30400E0000
0040000000
00C0000000
0180000000
3F00000000
ENDCHAR

STARTCHAR PushPinOutDefFill
ENCODING 185
SWIDTH 122 0
DWIDTH 35 0
BBX 35 18 0 -18
BITMAP
0000000000
0000060000
0000070060
00000700E0
00000700E0
000007FEE0
000007FEE0
000007FEE0
000007FEE0
000007FEE0
000007FEE0
0000077EE0
00000700E0
0000070000
0000000000
0C00000000
0E00000000
0E00000000
ENDCHAR

STARTCHAR HorizGauleLeftEndcap
ENCODING 186
SWIDTH 122 0
DWIDTH 9 0
BBX 9 23 0 -23
BITMAP
0080
0700
0F00
0800
3000
6000
6000
E000
8000
8000
8000
8000
8000
8000
8000
E000
6000
6000
3000
0800
0F00
0700
0080
ENDCHAR

STARTCHAR HorizGaugwRightEndca
ENCODING 187
SWIDTH 122 0
DWIDTH 9 0
BBX 9 23 0 -23
BITMAP
8000
7000
7800
0800
0600
0300
0300
0380
0080
0080
0080
0080
0080
0080
0080
0380
0300
0300
0600
0800
7800
7000
8000
ENDCHAR

STARTCHAR HorizGaugeOutlMiddle
ENCODING 188
SWIDTH 122 0
DWIDTH 1 0
BBX 1 23 0 -23
BITMAP
80
00
00
00
00
00
00
00
00
00
00
00
00
00
00
00
00
00
00
00
00
00
80
ENDCHAR

STARTCHAR HorizGaugeOutlMiddle
ENCODING 189
SWIDTH 122 0
DWIDTH 2 0
BBX 2 23 0 -23
BITMAP
C0
00
00
00
00
00
00
00
00
00
00
00
00
00
00
00
00
00
00
00
00
00
C0
ENDCHAR

STARTCHAR HorizGaugeOutlMiddle
ENCODING 190
SWIDTH 122 0
DWIDTH 4 0
BBX 4 23 0 -23
BITMAP
F0
00
00
00
00
00
00
00
00
00
00
00
00
00
00
00
00
00
00
00
00
00
F0
ENDCHAR

STARTCHAR HorizGaugeOutlMiddle
ENCODING 191
SWIDTH 122 0
DWIDTH 8 0
BBX 8 23 0 -23
BITMAP
FF
00
00
00
00
00
00
00
00
00
00
00
00
00
00
00
00
00
00
00
00
00
FF
ENDCHAR

STARTCHAR HorizGaugeOutlMiddle
ENCODING 192
SWIDTH 122 0
DWIDTH 16 0
BBX 16 23 0 -23
BITMAP
FFFF
0000
0000
0000
0000
0000
0000
0000
0000
0000
0000
0000
0000
0000
0000
0000
0000
0000
0000
0000
0000
0000
FFFF
ENDCHAR

STARTCHAR CheckBoxClean
ENCODING 193
SWIDTH 122 0
DWIDTH 33 0
BBX 33 28 0 -28
BITMAP
FFFFFFFF80
FFFFFFFF80
FFFFFFFF80
0000007F80
0000007F80
0000007F80
0000007F80
0000007F80
0000007F80
0000007F80
0000007F80
0000007F80
0000007F80
0000007F80
0000007F80
0000007F80
0000007F80
0000007F80
0000007F80
0000007F80
0000007F80
0000007F80
0000007F80
0000007F80
0000007F80
0000007F80
0000007F80
0000007F80
ENDCHAR

STARTCHAR Vert-sb-box-UL
ENCODING 194
SWIDTH 122 0
DWIDTH 26 0
BBX 26 30 0 -30
BITMAP
FFFFFFC0
FFFFFFC0
80000000
80000000
80000000
80000000
80000000
80000000
80000000
80000000
80000000
80000000
80000000
80000000
80000000
80000000
80000000
80000000
80000000
80000000
80000000
80000000
80000000
80000000
80000000
80000000
80000000
80000000
80000000
00000000
ENDCHAR

STARTCHAR Vert-sb-box-LR
ENCODING 195
SWIDTH 122 0
DWIDTH 26 0
BBX 26 28 0 -28
BITMAP
00000000
00000040
00000040
00000040
00000040
00000040
00000040
00000040
00000040
00000040
00000040
00000040
00000040
00000040
00000040
00000040
00000040
00000040
00000040
00000040
00000040
00000040
00000040
00000040
00000040
00000040
000000C0
7FFFFFC0
ENDCHAR

STARTCHAR Dimple.UL
ENCODING 196
SWIDTH 122 0
DWIDTH 14 0
BBX 14 21 0 -21
BITMAP
0000
0000
0000
0000
0000
0000
0000
0000
007C
03E0
03C0
0300
0700
0600
0600
0600
0700
0300
03C0
03E0
0070
ENDCHAR

STARTCHAR Dimple.UL
ENCODING 197
SWIDTH 122 0
DWIDTH 18 0
BBX 18 21 0 -21
BITMAP
000000
000000
000000
000000
000000
000000
000000
000000
000000
000780
000780
000180
0001C0
0000C0
000040
0000C0
0001C0
000180
000780
000F80
001C00
ENDCHAR

STARTCHAR Dimple.UL
ENCODING 198
SWIDTH 122 0
DWIDTH 17 0
BBX 17 19 0 -19
BITMAP
000000
000000
000000
000000
000000
000000
000000
000000
000000
003800
00FF00
00FF00
01FF80
03FF80
03FF80
01FF00
00FF00
00FF00
003800
ENDCHAR

STARTCHAR SldierOffset_SpecCha
ENCODING 199
SWIDTH 122 0
DWIDTH 8 0
BBX 8 2 0 -2
BITMAP
FF
FF
ENDCHAR

STARTCHAR Horiz-sb-box-UL
ENCODING 200
SWIDTH 122 0
DWIDTH 27 0
BBX 27 26 0 -26
BITMAP
7FFFFFE0
C0000000
80000000
80000000
80000000
80000000
80000000
80000000
80000000
80000000
80000000
80000000
80000000
80000000
80000000
80000000
80000000
80000000
80000000
80000000
80000000
80000000
80000000
80000000
80000000
80000000
ENDCHAR

STARTCHAR Horiz-sb-box-LR
ENCODING 201
SWIDTH 122 0
DWIDTH 28 0
BBX 28 26 0 -26
BITMAP
00000000
00000010
00000010
00000010
00000010
00000010
00000010
00000010
00000010
00000010
00000010
00000010
00000010
00000010
00000010
00000010
00000010
00000010
00000010
00000010
00000010
00000010
00000010
00000010
00000030
7FFFFFF0
ENDCHAR

STARTCHAR Vertmenumarkback-ul
ENCODING 202
SWIDTH 122 0
DWIDTH 0 0
BBX 17 17 0 -17
BITMAP
008000
038000
030000
030000
060000
060000
0C0000
080000
080000
300000
300000
300000
600000
600000
C00000
C00000
C00000
ENDCHAR

STARTCHAR VertMenuMarkBack-LR
ENCODING 203
SWIDTH 122 0
DWIDTH 0 0
BBX 17 17 0 -17
BITMAP
000000
006000
006000
006000
003000
003000
001800
000800
000800
000600
000600
000600
000300
000300
000180
3FFF80
7FFF80
ENDCHAR

STARTCHAR VertMenuMarkback-fil
ENCODING 204
SWIDTH 122 0
DWIDTH 17 0
BBX 17 17 0 -17
BITMAP
000000
008000
008000
008000
03E000
03E000
07F000
07F000
07F000
0FF800
0FF800
0FF800
3FFE00
3FFE00
7FFF00
7FFF00
000000
ENDCHAR

STARTCHAR HorizMenuMarkback-ul
ENCODING 205
SWIDTH 122 0
DWIDTH 0 0
BBX 17 9 0 -9
BITMAP
000380
000E00
007C00
007000
038000
0E0000
7C0000
700000
C00000
ENDCHAR

STARTCHAR HorizMenuMarkback-lr
ENCODING 206
SWIDTH 122 0
DWIDTH 0 0
BBX 17 17 0 -17
BITMAP
000000
000080
000180
000180
000180
000180
000180
000180
000180
700180
7C0180
0E0180
038180
007180
007D80
000F80
000380
ENDCHAR

STARTCHAR HorizMenuMarkback-fi
ENCODING 207
SWIDTH 122 0
DWIDTH 18 0
BBX 18 17 0 -17
BITMAP
000000
000200
000F00
001F00
007F00
03FF00
0FFF00
0FFF00
7FFF00
0FFF00
0FFF00
03FF00
007F00
001F00
000F00
000200
000000
ENDCHAR

STARTCHAR ActiveCaret
ENCODING 208
SWIDTH 122 0
DWIDTH 12 0
BBX 12 12 0 -12
BITMAP
0600
0600
0F00
0F00
0F00
1F80
3FC0
3FC0
7FE0
7FE0
FFF0
FFF0
ENDCHAR

STARTCHAR InactiveCaret
ENCODING 209
SWIDTH 122 0
DWIDTH 12 0
BBX 12 12 0 -12
BITMAP
0600
0F00
1F80
36C0
6F60
FFF0
FFF0
6F60
36C0
1F80
0F00
0600
ENDCHAR

STARTCHAR Vertgauge-TopEndcap
ENCODING 210
SWIDTH 122 0
DWIDTH 23 0
BBX 23 9 0 -9
BITMAP
01FF00
0701C0
0F01E0
080020
300018
60000C
60000C
60000C
800002
ENDCHAR

STARTCHAR Vertgauge-Botendcap
ENCODING 211
SWIDTH 122 0
DWIDTH 23 0
BBX 23 9 0 -9
BITMAP
800002
60000C
60000C
60000C
300018
080020
0F01E0
0701C0
01FF00
ENDCHAR

STARTCHAR ButtonSpec-UR
ENCODING 212
SWIDTH 122 0
DWIDTH 9 0
BBX 9 9 0 -9
BITMAP
F000
1E00
0F00
0300
0300
0180
0080
0080
0080
ENDCHAR

STARTCHAR ButtonSpec-LR
ENCODING 213
SWIDTH 122 0
DWIDTH 9 0
BBX 9 9 0 -9
BITMAP
0080
0080
0080
0180
0300
0300
0F00
1E00
F000
ENDCHAR

STARTCHAR ButtonSpec-2D-LR
ENCODING 214
SWIDTH 122 0
DWIDTH 9 0
BBX 11 11 0 -11
BITMAP
00E0
00E0
00E0
00E0
01C0
01C0
01C0
0F00
FE00
FE00
F000
ENDCHAR

STARTCHAR ButtonSpecialDef-UL
ENCODING 215
SWIDTH 122 0
DWIDTH 9 0
BBX 9 9 0 -9
BITMAP
0000
0000
0000
0000
0380
0600
0C00
0800
0800
ENDCHAR

STARTCHAR ButtonSpecialDef-LL
ENCODING 216
SWIDTH 122 0
DWIDTH 9 0
BBX 9 6 0 -6
BITMAP
0800
0800
0800
0600
0780
0380
ENDCHAR

STARTCHAR ButtonSpecDef-UR
ENCODING 217
SWIDTH 122 0
DWIDTH 6 0
BBX 6 9 0 -9
BITMAP
00
00
00
00
E0
18
1C
0C
0C
ENDCHAR

STARTCHAR ButtonSpecDef-LR
ENCODING 218
SWIDTH 122 0
DWIDTH 6 0
BBX 6 6 0 -6
BITMAP
0C
0C
0C
18
F0
E0
ENDCHAR

STARTCHAR HorizGaugeLeftEnd-Fi
ENCODING 219
SWIDTH 122 0
DWIDTH 9 0
BBX 9 23 0 -23
BITMAP
0000
0080
0780
0780
0F80
3F80
3F80
3F80
7F80
7F80
7F80
7F80
7F80
7F80
7F80
3F80
3F80
3F80
0F80
0780
0780
0080
0000
ENDCHAR

STARTCHAR HorizGaugeMiddleFill
ENCODING 220
SWIDTH 122 0
DWIDTH 1 0
BBX 1 23 0 -23
BITMAP
00
80
80
80
80
80
80
80
80
80
80
80
80
80
80
80
80
80
80
80
80
80
00
ENDCHAR

STARTCHAR HorizGaugeMiddleFill
ENCODING 221
SWIDTH 122 0
DWIDTH 2 0
BBX 2 23 0 -23
BITMAP
00
C0
C0
C0
C0
C0
C0
C0
C0
C0
C0
C0
C0
C0
C0
C0
C0
C0
C0
C0
C0
C0
00
ENDCHAR

STARTCHAR HorizGaugeMiddleFill
ENCODING 222
SWIDTH 122 0
DWIDTH 4 0
BBX 4 23 0 -23
BITMAP
00
F0
F0
F0
F0
F0
F0
F0
F0
F0
F0
F0
F0
F0
F0
F0
F0
F0
F0
F0
F0
F0
00
ENDCHAR

STARTCHAR HorizGaugeMiddleFill
ENCODING 223
SWIDTH 122 0
DWIDTH 8 0
BBX 8 23 0 -23
BITMAP
00
FF
FF
FF
FF
FF
FF
FF
FF
FF
FF
FF
FF
FF
FF
FF
FF
FF
FF
FF
FF
FF
00
ENDCHAR

STARTCHAR HorizGaugeMiddleFill
ENCODING 224
SWIDTH 122 0
DWIDTH 16 0
BBX 16 23 0 -23
BITMAP
0000
FFFF
FFFF
FFFF
FFFF
FFFF
FFFF
FFFF
FFFF
FFFF
FFFF
FFFF
FFFF
FFFF
FFFF
FFFF
FFFF
FFFF
FFFF
FFFF
FFFF
FFFF
0000
ENDCHAR

STARTCHAR HorizGaugeRightEndFi
ENCODING 225
SWIDTH 122 0
DWIDTH 9 0
BBX 9 23 0 -23
BITMAP
0000
8000
F000
F000
F800
FE00
FE00
FE00
FF00
FF00
FF00
FF00
FF00
FF00
FF00
FE00
FE00
FE00
F800
F000
F000
8000
0000
ENDCHAR

STARTCHAR Vertgauge-TopEndcapF
ENCODING 226
SWIDTH 122 0
DWIDTH 23 0
BBX 23 9 0 -9
BITMAP
000000
00FE00
07FFC0
07FFC0
0FFFE0
3FFFF8
3FFFF8
3FFFF8
7FFFFC
ENDCHAR

STARTCHAR VertgaugeBotFill
ENCODING 227
SWIDTH 122 0
DWIDTH 23 0
BBX 23 9 0 -9
BITMAP
7FFFFC
3FFFF8
3FFFF8
3FFFF8
0FFFE0
07FFC0
07FFC0
00FE00
000000
ENDCHAR

STARTCHAR TextScrollLeft
ENCODING 228
SWIDTH 122 0
DWIDTH 23 0
BBX 32 32 0 -32
BITMAP
7FFFFFFC
C0000006
80000007
80000007
80000007
80000007
80003007
80007807
8000F807
8001F807
8003F807
8007F807
800FF807
801FF807
803FF807
803FF807
803FF807
801FF807
8007F807
8003F807
8003F807
8001F807
8000F807
80003807
80003007
80000007
80000007
80000007
80000007
FFFFFFFF
7FFFFFFF
3FFFFFFE
ENDCHAR

STARTCHAR TextScrollRight
ENCODING 229
SWIDTH 122 0
DWIDTH 32 0
BBX 32 32 0 -32
BITMAP
7FFFFFFC
C0000006
80000007
80000007
80000007
80000007
80380007
803C0007
803C0007
803F0007
803F8007
803FC007
803FC007
803FE007
803FF807
803FF807
803FF807
803FE007
803FC007
803F8007
803F8007
803E0007
803C0007
80380007
80100007
80000007
80000007
80000007
80000007
FFFFFFFF
7FFFFFFF
3FFFFFFE
ENDCHAR

STARTCHAR TextScrollLeftInv
ENCODING 230
SWIDTH 122 0
DWIDTH 23 0
BBX 32 32 0 -32
BITMAP
7FFFFFFC
C0000006
9FFFFFF7
BFFFFFF7
BFFFFFF7
BFFFFFF7
BFFFFFF7
BFFFCFF7
BFFF8FF7
BFFF0FF7
BFFE0FF7
BFFC0FF7
BFF80FF7
BFF00FF7
BFE00FF7
BFC00FF7
BFE00FF7
BFF00FF7
BFF80FF7
BFFC0FF7
BFFE0FF7
BFFF0FF7
BFFF8FF7
BFFFCFF7
BFFFFFF7
BFFFFFF7
BFFFFFF7
BFFFFFF7
80000007
FFFFFFFF
7FFFFFFF
3FFFFFFE
ENDCHAR

STARTCHAR TextScrollRightInv
ENCODING 231
SWIDTH 122 0
DWIDTH 32 0
BBX 32 32 0 -32
BITMAP
7FFFFFFC
C0000006
9FFFFFF7
BFFFFFF7
BFFFFFF7
BFFFFFF7
BFFFFFF7
BFC7FFF7
BFC3FFF7
BFC1FFF7
BFC0FFF7
BFC07FF7
BFC03FF7
BFC01FF7
BFC00FF7
BFC00FF7
BFC00FF7
BFC01FF7
BFC03FF7
BFC07FF7
BFC1FFF7
BFC1FFF7
BFC3FFF7
BFC7FFF7
BFFFFFF7
BFFFFFF7
BFFFFFF7
BFFFFFF7
80000007
FFFFFFFF
7FFFFFFF
3FFFFFFE
ENDCHAR

STARTCHAR NumericScrollNoraml
ENCODING 232
SWIDTH 122 0
DWIDTH 61 0
BBX 61 32 0 -32
BITMAP
7FFFFFFFFFFFFFE0
C000000600000030
8000000600000038
8000000600000038
8000000600000038
8000000600000038
8000000600000038
8000000600000038
8000000600000038
8000000600000038
800380061FFFF838
8007C0061FFFFC38
800FC0061FFFF838
801FE00607FFF038
803FF80603FFE038
807FFC0603FFC038
80FFFE0601FFC038
81FFFE0600FF0038
83FFFF06003E0038
83FFFF06001C0038
83FFFF06001C0038
8000000600000038
8000000600000038
8000000600000038
8000000600000038
8000000600000038
8000000600000038
8000000600000038
8000000600000038
FFFFFFFFFFFFFFF8
7FFFFFFFFFFFFFF8
3FFFFFFFFFFFFFF0
ENDCHAR

STARTCHAR NumericScrollLeftInv
ENCODING 233
SWIDTH 122 0
DWIDTH 61 0
BBX 61 32 0 -32
BITMAP
7FFFFFFFFFFFFFE0
C000000600000030
9FFFFFF600000038
BFFFFFF600000038
BFFFFFF600000038
BFFFFFF600000038
BFFFFFF600000038
BFFFFFF600000038
BFFFFFF600000038
BFFFFFF600000038
BFFCFFF61FFFF838
BFFC7FF61FFFFC38
BFF83FF61FFFF838
BFF01FF607FFF038
BFC00FF603FFE038
BFC007F603FFC038
BF8003F601FFC038
BF0001F600FF0038
BE0000F6003E0038
BE0000F6001C0038
BFFFFFF6001C0038
BFFFFFF600000038
BFFFFFF600000038
BFFFFFF600000038
BFFFFFF600000038
BFFFFFF600000038
BFFFFFF600000038
BFFFFFF600000038
8000000600000038
FFFFFFFFFFFFFFF8
7FFFFFFFFFFFFFF8
3FFFFFFFFFFFFFF0
ENDCHAR

STARTCHAR NumericScrollRightInv
ENCODING 234
SWIDTH 122 0
DWIDTH 61 0
BBX 61 32 0 -32
BITMAP
7FFFFFFFFFFFFFE0
C000000600000030
80000006FFFFFFB8
80000006FFFFFFB8
80000006FFFFFFB8
80000006FFFFFFB8
80000006FFFFFFB8
80000006FFFFFFB8
80000006FFFFFFB8
80000006FFFFFFB8
80038006F00007B8
8007C006F00007B8
800FC006F00007B8
801FE006F8000FB8
803FF806FC001FB8
807FFC06FE003FB8
80FFFE06FF007FB8
81FFFE06FF80FFB8
83FFFF06FFC1FFB8
83FFFF06FFE3FFB8
83FFFF06FFFFFFB8
80000006FFFFFFB8
80000006FFFFFFB8
80000006FFFFFFB8
80000006FFFFFFB8
80000006FFFFFFB8
80000006FFFFFFB8
80000006FFFFFFB8
8000000600000038
FFFFFFFFFFFFFFF8
7FFFFFFFFFFFFFF8
3FFFFFFFFFFFFFF0
ENDCHAR
ENDFONT
